<?xml version="1.0" standalone="no"?>
<!DOCTYPE svg PUBLIC "-//W3C//DTD SVG 20010904//EN"
 "http://www.w3.org/TR/2001/REC-SVG-20010904/DTD/svg10.dtd">
<svg version="1.0" xmlns="http://www.w3.org/2000/svg"
 width="512.000000pt" height="512.000000pt" viewBox="0 0 512.000000 512.000000"
 preserveAspectRatio="xMidYMid meet">
<metadata>
Created by potrace 1.14, written by Peter Selinger 2001-2017
</metadata>
<g transform="translate(0.000000,512.000000) scale(0.100000,-0.100000)"
fill="#000000" stroke="none">
<path d="M923 5022 c-22 -21 -73 -63 -114 -94 -41 -32 -86 -69 -101 -83 -15
-14 -30 -25 -33 -25 -7 0 -7 0 -100 -77 -38 -32 -88 -71 -110 -88 -22 -16 -56
-44 -75 -62 -19 -18 -40 -33 -46 -33 -26 0 -21 -37 20 -163 24 -73 46 -147 49
-164 3 -16 10 -40 16 -51 6 -12 10 -25 9 -29 -2 -8 18 -93 48 -198 7 -27 21
-84 29 -125 9 -41 18 -84 20 -95 10 -42 16 -82 20 -135 2 -30 7 -66 10 -80 5
-23 10 -58 20 -165 5 -57 6 -315 0 -485 -2 -80 -5 -156 -5 -170 0 -13 -4 -49
-10 -80 -5 -30 -12 -73 -15 -95 -3 -22 -13 -76 -22 -120 -9 -44 -17 -89 -19
-100 -6 -37 -10 -50 -21 -70 -6 -11 -11 -23 -11 -28 -1 -19 -15 -73 -22 -82
-4 -5 -15 -35 -25 -65 -10 -30 -21 -59 -25 -65 -4 -5 -12 -31 -18 -56 -13 -52
-39 -114 -75 -174 -13 -22 -31 -60 -41 -85 -10 -25 -23 -48 -29 -52 -6 -3 -10
-29 -10 -56 1 -44 9 -62 65 -144 34 -51 65 -95 68 -98 3 -3 32 -41 65 -85 78
-104 247 -275 335 -337 33 -24 117 -80 138 -93 72 -45 245 -125 269 -125 7 0
13 -4 13 -10 0 -5 4 -10 9 -10 5 0 31 -10 58 -22 26 -12 50 -22 53 -23 3 -1
18 -7 33 -13 16 -7 34 -12 40 -12 7 0 21 -6 32 -14 11 -7 22 -14 25 -14 9 0
94 -24 173 -49 43 -14 88 -26 101 -27 12 -2 28 -6 34 -10 6 -3 23 -8 39 -10
47 -7 196 -47 218 -59 11 -6 25 -12 30 -13 40 -9 157 -61 213 -96 88 -55 166
-111 170 -121 2 -4 15 -21 29 -37 14 -17 21 -30 16 -30 -4 0 0 -5 10 -11 15
-9 27 -4 66 30 27 22 72 54 102 72 29 17 72 44 94 59 22 15 50 30 63 34 12 4
22 12 22 17 0 5 3 8 8 7 4 0 14 2 22 5 8 4 33 11 55 16 22 5 78 23 125 41 47
17 90 32 95 34 6 1 42 13 80 25 39 12 77 24 85 26 45 11 152 51 218 82 42 19
81 36 87 37 5 1 25 10 43 19 17 10 32 15 32 13 0 -5 53 22 180 90 14 8 29 14
33 14 4 0 48 27 97 60 49 33 92 60 95 60 5 0 25 16 78 63 18 15 55 42 82 59
42 27 177 156 258 248 83 94 181 218 197 249 10 21 26 43 34 50 9 8 16 19 16
26 0 7 7 18 16 26 25 20 64 105 59 128 -2 12 -22 59 -44 105 -23 46 -41 88
-41 94 0 6 -6 17 -14 25 -8 8 -16 27 -19 43 -2 16 -16 50 -31 76 -15 27 -24
48 -20 48 4 0 2 6 -4 13 -8 10 -40 110 -43 134 -1 5 -6 19 -11 33 -19 49 -41
187 -32 201 3 5 1 9 -3 9 -5 0 -10 8 -11 18 -1 9 -6 55 -12 102 -5 47 -9 99
-9 115 1 17 0 35 0 40 -5 37 -2 500 3 540 16 127 20 163 21 205 2 58 35 232
46 244 5 6 9 22 9 36 0 14 7 35 15 46 8 12 12 24 10 26 -3 3 1 24 9 47 9 23
15 44 15 46 -1 16 15 72 23 83 6 6 8 12 4 12 -3 0 -1 11 4 24 5 13 12 44 15
67 4 24 11 46 16 47 5 2 9 14 9 26 0 12 4 26 8 32 5 5 23 45 41 89 18 44 36
85 40 90 4 6 7 49 6 96 0 85 0 86 -36 116 -19 18 -56 52 -83 77 -26 26 -64 59
-84 74 -40 30 -42 31 -135 120 -36 34 -70 62 -74 62 -4 1 -30 21 -57 45 -28
25 -59 45 -70 45 -12 0 -37 -14 -56 -30 -19 -17 -46 -33 -60 -37 -14 -3 -32
-11 -40 -18 -17 -14 -224 -116 -243 -119 -6 -1 -43 -13 -82 -25 -38 -13 -86
-25 -105 -26 -87 -8 -142 -15 -150 -20 -16 -10 -295 -8 -335 3 -22 6 -53 13
-70 16 -112 20 -238 67 -318 120 -80 53 -189 106 -218 106 -34 0 -131 -42
-252 -109 -21 -12 -44 -21 -51 -21 -8 0 -16 -4 -18 -8 -3 -8 -121 -61 -148
-66 -8 -2 -22 -6 -30 -9 -14 -6 -122 -29 -195 -41 -32 -6 -214 -8 -255 -3 -14
2 -41 7 -60 12 -19 4 -42 9 -50 10 -29 4 -99 26 -127 40 -15 8 -32 15 -38 15
-9 0 -58 23 -185 84 -52 26 -101 57 -148 94 -57 46 -72 46 -119 4z"/>
</g>
</svg>
