<?xml version="1.0" encoding="UTF-8" standalone="no"?>
<svg
   viewBox="0 0 999.99792 308.94229"
   id="svg5121"
   version="1.1">
  <defs
     id="defs5125" />
  <path
     id="path5131"
     d="m 0.1001883,271.5175 c 0.082917,-31.205 0.1473923,-37.4743 0.3877564,-37.7047 0.5190136,-0.4967 2.5848521,-1.2061 6.3612456,-2.184 8.0350907,-2.0805 8.3301967,-2.2091 9.5682797,-4.1661 1.567234,-2.4774 2.540836,-3.3108 5.382763,-4.6094 1.007564,-0.4601 1.680295,-0.9116 2.101213,-1.4095 0.350063,-0.4144 0.926024,-0.8346 1.325391,-0.9671 0.900774,-0.2991 2.803669,-0.2934 5.494286,0.016 3.276878,0.3771 2.970534,0.5204 2.971722,-1.3892 8.5e-4,-1.4505 0.06702,-1.7437 0.561239,-2.4891 0.308139,-0.4645 0.75139,-1.0324 0.984985,-1.2615 l 0.424671,-0.417 -0.493979,-0.3638 c -0.727068,-0.5355 -1.03739,-1.6142 -1.037266,-3.6055 1.19e-4,-1.9216 0.378254,-2.9248 1.178554,-3.1267 0.22614,-0.057 1.653225,-1.19 3.171335,-2.5177 1.518128,-1.3277 3.140371,-2.6234 3.604976,-2.8793 l 0.844799,-0.4653 1.851758,0.3578 c 2.487136,0.4806 2.964532,0.4 5.074134,-0.856 1.358664,-0.8089 2.954859,-1.3055 4.195941,-1.3055 0.81434,0 1.012256,-0.074 1.462274,-0.5481 0.286219,-0.3014 0.777993,-1.0413 1.092862,-1.6442 0.959819,-1.838 2.20537,-3.6298 2.880248,-4.1437 0.499206,-0.3801 0.825648,-0.4839 1.479394,-0.4702 l 0.838898,0.017 V 173.499 153.6133 l 0.554829,-0.4087 c 1.4529,-1.0701 7.869382,-2.1955 14.404877,-2.5266 1.050389,-0.053 2.411054,-0.1373 3.023784,-0.1869 l 1.11404,-0.09 v -1.5899 -1.59 h 5.835366 5.835315 v 1.5887 1.5886 l 1.326247,0.09 c 0.729422,0.05 2.6153,0.1765 4.19084,0.2823 6.834464,0.4591 11.708124,1.3997 13.315244,2.5699 l 0.47741,0.3477 v 15.5696 c 0,8.5633 0.0531,15.5696 0.11803,15.5696 0.0649,0 1.10127,-0.3403 2.30306,-0.7562 2.98383,-1.0325 4.03176,-1.21 5.58339,-0.9458 0.67429,0.1148 2.79786,0.8293 4.71903,1.5878 l 3.49302,1.379 2.94534,-0.045 c 2.49288,-0.038 3.17712,0.01 4.45389,0.3123 1.9243,0.4555 2.79375,0.3687 6.07329,-0.6063 5.58816,-1.6613 9.64117,-2.2958 12.62899,-1.9772 0.9418,0.1004 2.1668,0.3376 2.72224,0.5272 1.18845,0.4055 2.88752,1.6163 3.46347,2.468 0.31809,0.4704 0.50003,0.5797 0.83157,0.4996 1.25119,-0.3025 5.52329,-0.9367 6.96002,-1.0332 1.40411,-0.094 1.63406,-0.1523 1.51598,-0.3815 -1.34556,-2.6115 -0.80133,-4.5971 1.88561,-6.8798 2.26216,-1.9219 5.63624,-3.7087 8.54164,-4.5234 2.33855,-0.6558 2.63801,-0.6057 4.30372,0.7197 0.78679,0.626 2.02051,1.6695 2.74159,2.3187 l 1.31109,1.1805 0.41444,-0.42 c 0.49287,-0.4995 0.99037,-1.889 1.17797,-3.29 0.19079,-1.425 0.66738,-2.6715 1.15569,-3.0227 0.5224,-0.3757 1.71078,-0.3864 2.41124,-0.022 0.29343,0.1528 0.78073,0.5613 1.08287,0.9078 0.78749,0.9031 2.07641,1.85 2.57125,1.889 1.39357,0.1098 1.85746,-0.273 3.51955,-2.9042 0.68487,-1.0842 1.55277,-2.2496 1.92873,-2.5899 0.64481,-0.5837 0.74172,-0.6143 1.71071,-0.5403 1.34668,0.1028 2.16995,0.6379 4.19343,2.7255 2.62666,2.7097 4.19199,3.1459 6.15347,1.7146 0.8643,-0.6306 6.67227,-2.6274 8.03404,-2.7623 l 1.19667,-0.1185 0.13489,-4.0469 c 0.17258,-5.1844 0.19709,-5.9863 1.46494,-47.9771 0.58725,-19.4313 1.03991,-35.9367 1.00666,-36.6787 l -0.0604,-1.3491 -2.87669,-0.047 -2.87699,-0.047 -0.68379,-4.8438 c -0.37674,-2.6641 -0.68108,-4.9008 -0.67734,-4.9703 0.004,-0.07 0.38827,-0.1265 0.85541,-0.1265 h 0.84886 v -1.6021 -1.602 h -1.04846 c -0.57713,0 -1.09115,-0.057 -1.14323,-0.1265 -0.0521,-0.07 -0.16274,-0.6747 -0.24575,-1.3448 l -0.15132,-1.2184 3.46946,-0.046 3.46879,-0.046 0.0585,-2.6561 0.0585,-2.6561 h -2.33455 -2.33495 l -0.0579,-6.7455 -0.0578,-6.7456 3.66819,10e-5 h 3.66879 l -0.0258,-4.7064 c -0.0179,-3.256 0.0493,-4.8179 0.21782,-5.0682 0.28455,-0.423 1.43209,-1.0167 1.96707,-1.0176 0.35102,0 0.37116,-0.9364 0.37116,-17.286 V 0 h 0.63678 0.6364 v 17.1832 17.1831 l 1.00794,0.3974 c 1.70151,0.6707 1.74968,0.8388 1.75006,6.0888 v 4.5111 h 3.36154 3.36124 l 0.13914,4.1738 c 0.0769,2.2956 0.13979,5.2907 0.14005,6.6558 v 2.4821 l -2.49303,0.047 -2.49357,0.048 v 2.6982 2.6982 l 3.68184,0.046 3.68136,0.046 -0.15145,1.2186 c -0.0833,0.6702 -0.19388,1.2755 -0.24581,1.3451 -0.052,0.07 -0.61379,0.1264 -1.24872,0.1264 h -1.15467 v 1.6021 1.602 h 0.97846 0.97845 l -0.11833,0.5481 c -0.0652,0.3015 -0.42998,2.5401 -0.80995,4.9749 l -0.69176,4.4267 h -2.82108 -2.82076 l 0.002,1.1383 c 0,0.6261 0.47571,16.9228 1.05611,36.215 0.57986,19.2922 1.15361,38.6434 1.27459,43.0027 0.12098,4.3593 0.27526,8.7774 0.34356,9.8181 l 0.1239,1.8921 1.49021,0.7576 c 1.49996,0.7628 2.51806,1.1192 4.10468,1.4367 0.69835,0.1398 0.95509,0.3083 1.35733,0.8913 0.27339,0.3953 0.6408,0.8517 0.81619,1.014 0.43214,0.3987 1.76496,0.3824 3.43707,-0.042 1.97402,-0.5012 2.63185,-0.4334 3.76651,0.388 0.3766,0.2723 0.88723,0.3692 2.40589,0.4563 1.30263,0.075 1.99282,0.1881 2.12828,0.3498 0.202,0.2416 0.13867,1.198 -0.13699,2.0522 -0.13976,0.4329 -0.10521,0.4637 0.51826,0.4637 0.97908,0 1.85298,-0.3518 3.51373,-1.4141 1.19204,-0.7627 1.63021,-0.9468 2.25521,-0.9468 0.42603,0 0.88426,0.1044 1.01713,0.2319 0.16613,0.1591 0.53506,0.2057 1.17435,0.1484 0.90458,-0.081 0.97486,-0.052 2.38342,0.995 1.73642,1.2908 2.56057,1.7687 3.30775,1.9176 0.38581,0.077 1.4253,-0.1213 3.38178,-0.6454 1.55384,-0.4162 3.14059,-0.8017 3.52697,-0.8567 1.44273,-0.2054 8.15691,0.8448 11.07482,1.7324 2.69978,0.8212 4.66816,2.1519 4.66816,3.1558 0,0.3772 0.0239,0.3821 0.79553,0.1622 0.43786,-0.1247 1.68292,-0.5716 2.76693,-0.9931 2.30778,-0.8972 3.73401,-1.0971 5.73507,-0.8041 3.18807,0.4669 5.597,2.1501 6.08795,4.2537 0.12347,0.5316 0.23563,0.6247 0.84565,0.7034 2.58368,0.3332 6.62358,3.0321 7.04518,4.7066 0.0651,0.2584 0.16646,0.4697 0.22467,0.4697 0.0588,0 0.75398,-0.4849 1.54463,-1.0776 1.63839,-1.2285 2.53866,-1.534 4.13483,-1.4031 2.80734,0.2303 5.25462,2.1311 5.85824,4.5507 0.28145,1.1278 0.18953,1.1209 2.67875,0.2013 l 1.53862,-0.5683 v -23.3646 -23.3647 h 8.48757 8.48802 v -8.6848 -8.6849 h 8.59369 8.59427 v -6.9985 -6.9984 h 5.41058 5.4112 v -2.361 -2.3609 h 8.06345 8.06346 v 2.3609 2.361 h 4.88039 4.8806 v 6.9984 6.9985 h 9.12427 9.12448 v 8.6849 8.6848 h 7.7451 7.74481 v 13.7175 13.7176 l 1.64437,0.3561 c 7.57344,1.6398 20.58451,3.3525 31.56441,4.1547 7.50652,0.5486 19.18219,0.9095 22.44026,0.6938 l 1.85604,-0.1229 v -20.8959 -20.896 h 2.3338 2.33445 v -5.1434 -5.1435 h -0.74272 c -0.40868,0 -0.74301,-0.041 -0.74301,-0.092 0,-0.051 0.43835,-0.6957 0.97346,-1.4334 0.68629,-0.9451 1.09446,-1.3412 1.38298,-1.3412 0.39116,0 0.38685,-0.036 -0.0957,-0.8011 -1.25431,-1.9894 -1.32644,-4.7258 -0.17494,-6.643 0.84293,-1.4036 2.07126,-2.5068 3.65818,-3.2852 l 1.25841,-0.6174 v -3.6861 -3.686 h -0.84871 c -0.46659,0 -0.84873,-0.04 -0.84873,-0.088 0,-0.048 0.25025,-0.3881 0.5558,-0.755 0.54421,-0.6538 0.54844,-0.6806 0.21185,-1.3489 -0.78018,-1.5496 -0.22315,-3.5041 1.30112,-4.5679 l 0.75109,-0.5241 0.71283,-5.5067 c 1.54759,-11.9624 1.79132,-13.7568 1.87595,-13.8241 0.14928,-0.1185 0.28312,0.6219 0.63668,3.5113 0.32689,2.6711 1.00362,7.8821 1.71953,13.238 l 0.33827,2.5296 0.81872,0.6746 c 0.45068,0.371 0.96674,0.9567 1.14744,1.3015 0.41592,0.7938 0.42288,2.3243 0.014,3.1014 -0.28908,0.5497 -0.28053,0.6505 0.10627,1.2527 0.56108,0.8746 0.53287,1.0056 -0.21654,1.0056 h -0.63634 l 0.004,3.7522 0.004,3.7521 1.26141,0.6392 c 3.94192,1.9971 5.39453,6.2637 3.27571,9.6195 -0.62536,0.991 -0.62422,0.9558 -0.0313,0.9558 0.39509,0 0.64731,0.2624 1.37812,1.4334 l 0.89433,1.4334 h -0.7411 -0.74148 v 5.1435 5.1434 h 2.44048 2.44046 v 7.1671 7.1672 h 25.25088 25.25123 v -3.3129 -3.3128 l 1.4325,0.1075 c 0.78787,0.059 7.01837,0.1086 13.84583,0.1099 h 12.41297 l 1.73903,3.751 c 0.95622,2.063 3.26538,7.052 5.13177,11.0867 1.86647,4.0347 3.45731,7.4684 3.53573,7.6304 0.13535,0.2799 -2.07543,0.2969 -43.85733,0.3373 -43.84073,0.042 -43.99992,0.044 -43.99992,0.3799 0,0.336 0.15919,0.3374 43.97738,0.3798 30.90597,0.03 43.97738,-0.011 43.97738,-0.1364 0,-0.098 0.0955,-0.1321 0.21206,-0.075 0.11688,0.057 0.21186,0.7068 0.21186,1.4434 0,1.1643 0.0485,1.3386 0.37152,1.3355 0.20453,0 2.47231,-0.1138 5.03964,-0.2484 2.56752,-0.1345 4.73989,-0.2467 4.82735,-0.2492 0.0876,0 0.15925,-1.1247 0.15925,-2.4937 v -2.489 l 4.21554,-3.3468 4.21518,-3.3469 10.16054,0.059 10.1611,0.059 0.11807,-35.4971 c 0.12173,-36.5131 0.14401,-37.442 0.96049,-40.0002 0.35296,-1.1046 0.95763,-2.2595 1.44024,-2.7485 0.30198,-0.3065 0.33279,3.2793 0.33891,39.3296 l 0.007,39.6669 1.567,1.5926 c 0.86141,0.876 1.72336,1.77 1.91563,1.9868 0.29611,0.3341 0.38083,0.3555 0.55642,0.141 0.13478,-0.1643 0.15772,-15.2444 0.0655,-43.0285 l -0.142,-42.7755 1.28538,-0.5157 c 6.46604,-2.594 14.68494,-4.3157 21.59509,-4.5236 7.49374,-0.2256 13.40567,1.0101 18.91334,3.9531 3.11865,1.6665 5.90616,4.3557 8.0156,7.7325 1.803,2.8862 1.65238,-0.7734 1.6227,39.4839 -0.0145,19.6874 0.0458,35.7951 0.13416,35.7951 0.0883,0 0.69786,-0.4229 1.35561,-0.9398 l 1.19474,-0.94 6.02568,2.6839 c 3.31419,1.4761 7.6662,3.4168 9.67109,4.3126 2.00489,0.8959 3.75478,1.6289 3.88856,1.6289 0.13382,0 0.22611,-0.2087 0.20493,-0.4638 -0.0213,-0.2551 -0.0284,-4.2012 -0.0159,-8.7692 l 0.0223,-8.3054 h 0.84867 0.84886 l 0.009,9.233 0.009,9.2329 2.70368,3.1141 2.70392,3.1142 1.2653,0.2073 c 3.26844,0.5355 12.25128,1.7796 15.58877,2.1589 10.49728,1.1931 18.55336,1.2312 22.28085,0.1056 1.92557,-0.5815 2.64782,-1.1054 4.05763,-2.9445 1.87993,-2.4517 4.91408,-4.8284 7.4142,-5.8074 4.02266,-1.5752 8.43927,-1.6159 13.08693,-0.1203 l 1.7483,0.5627 1.06562,-0.3218 c 2.27929,-0.6883 2.97065,-0.3705 2.97065,1.3657 0,1.6514 0.39367,2.3508 1.32629,2.3573 0.30529,0 0.37103,-0.1499 0.37103,-0.8573 0,-1.1586 0.45882,-1.8506 1.92446,-2.9049 3.22432,-2.3189 11.14085,-4.4706 13.50363,-3.6702 0.37824,0.1283 1.02557,0.731 1.7899,1.6678 1.53231,1.8777 1.67789,2.1073 2.09422,3.3017 l 0.34561,0.9915 0.76406,-0.8229 c 0.41977,-0.4526 1.10573,-1.0845 1.52331,-1.4041 l 0.76006,-0.5812 v 3.4902 3.4901 h 2.43664 2.43716 l 0.0564,4.8484 0.0564,4.8483 1.43197,0.05 1.43254,0.05 v -4.8982 -4.8983 h 3.92559 3.92572 v 4.8905 4.8905 h 1.48503 1.48565 v -4.8905 -4.8905 h 4.98657 4.98658 v 4.3003 4.3003 h 1.48498 1.48569 v -4.3003 -4.3003 h 3.92549 3.92553 v 4.3003 4.3003 h 1.48564 1.48505 v -4.3003 -4.3003 h 4.2442 4.24386 v 4.8062 4.8062 h 1.48509 1.48559 l 0.0348,-5.1013 c 0.0191,-2.8057 0.0327,-5.272 0.0302,-5.4807 l -0.005,-0.3795 h 8.56361 8.56365 v 7.926 7.926 h 13.79282 13.79277 v -4.794 -4.7941 l 1.11397,-0.093 c 0.61245,-0.051 3.29398,-0.1825 5.95893,-0.292 l 4.84472,-0.1991 0.82324,-1.4164 c 0.45313,-0.7791 1.1157,-1.7096 1.47276,-2.0678 0.78515,-0.7878 2.17024,-1.3525 3.31754,-1.3525 2.59547,0 5.85427,2.7503 5.89468,4.9748 0.009,0.4638 -0.0613,0.9686 -0.15512,1.1219 -0.13861,0.2256 1.57797,1.329 9.03153,5.8052 l 9.20216,5.5265 2.11159,4.6252 2.11167,4.6251 10.26331,9.216 c 5.64428,5.0687 10.44222,9.3723 10.66172,9.5636 0.39105,0.3402 0.38615,1.2389 -0.2353,42.8338 -0.3488,23.3678 -0.6352,43.2644 -0.6359,44.2153 v 1.7284 L 506.88452,285.2435 0,308.9423 Z m 782.6933317,-1.9909 0.0542,-15.7257 h 32.04039 32.0404 l 0.003,15.557 c 0.002,8.5562 0.0843,15.6583 0.18338,15.7825 0.0988,0.1239 0.40734,0.1999 0.686,0.1686 l 0.50674,-0.057 0.0538,-28.1203 0.0537,-28.1205 h 28.43251 28.43308 l 0.0537,28.1205 0.0537,28.1203 0.58334,0.053 0.58334,0.053 v -15.6093 -15.609 l 32.35879,-0.043 32.35876,-0.043 0.0541,15.599 0.0542,15.599 0.79563,0.052 0.79563,0.052 v -33.3162 -33.3161 h -33.07805 -33.07807 l -0.38062,-0.4639 c -0.78485,-0.9558 -5.15386,-4.3398 -7.14727,-5.5354 -6.43704,-3.8609 -13.0393,-5.8056 -20.63674,-6.0781 -10.7468,-0.3856 -21.23092,3.3301 -28.93141,10.2535 l -2.02832,1.8239 h -4.30693 -4.30736 l -0.0185,-16.8217 c -0.0102,-9.2519 -0.0341,-17.5425 -0.0531,-18.4237 l -0.0347,-1.602 h -43.07539 -43.07563 l -0.0561,5.4577 -0.056,5.4577 -1.11104,-0.1 c -5.89634,-0.5293 -32.00797,-0.7405 -39.73044,-0.3214 -1.86715,0.1014 -3.41662,0.1676 -3.4426,0.1472 -0.0263,-0.02 -0.0553,-2.3662 -0.0644,-5.2128 l -0.0166,-5.1758 h -43.17027 -43.17051 l 4e-5,13.3646 7e-5,13.3645 -10.39784,-0.045 -10.39732,-0.045 v -2.9481 -2.948 h -23.97802 -23.97802 v 2.9512 2.9511 h -20.15838 -20.15878 v 26.8134 26.8135 h 0.74267 0.74297 v -4.8905 -4.8905 h 0.94202 c 0.93534,0 0.94247,0 1.00794,0.6323 0.0431,0.4132 0.17579,0.6402 0.38381,0.6551 0.17515,0.013 1.67939,0.031 3.34244,0.042 l 3.02391,0.02 v 4.2162 4.2159 h 1.50331 1.50397 l -0.0602,-4.8483 -0.0603,-4.8485 4.17983,-0.046 4.17974,-0.046 v 4.7254 4.7254 h 1.48505 1.48563 v -4.7218 -4.7219 h 10.50336 10.50394 v 4.3002 4.3005 h 1.48509 1.4856 v -4.3005 -4.3002 h 15.27774 15.27809 v 4.469 4.469 h 1.48563 1.48507 v -4.469 -4.469 h 10.29182 10.29146 v 4.3002 4.3005 h 1.48141 1.48199 l 0.0567,-4.2583 0.0562,-4.2581 3.87298,-0.046 3.87247,-0.046 v 4.7257 4.7256 h 1.48509 1.48571 v -4.0473 -4.0474 h 3.27595 3.27616 l 0.0659,-0.6323 0.066,-0.6324 12.46667,-0.043 12.46614,-0.043 v 4.8919 4.8919 h 0.74027 0.74057 l -0.0507,-26.7714 -0.0506,-26.7712 -19.25683,-0.043 -19.25686,-0.043 v -12.647 -12.6469 h 41.37837 41.37774 v 4.6375 4.6376 h -0.97029 c -2.46761,0 -13.3474,0.8665 -20.24903,1.6127 -6.53653,0.7068 -17.22856,2.1945 -19.9805,2.7801 l -0.77701,0.1653 6.61174,15.7652 6.61115,15.765 h 0.80041 c 0.72086,0 0.79008,-0.038 0.69331,-0.3792 -0.059,-0.2088 -0.92235,-5.0465 -1.91826,-10.7507 -0.99589,-5.7043 -2.00566,-11.4572 -2.24401,-12.7845 -0.23865,-1.3273 -0.4037,-2.4811 -0.36716,-2.564 0.0365,-0.083 2.54367,5.4804 5.57104,12.3629 3.02742,6.8824 5.65719,12.855 5.84443,13.2724 0.33206,0.7412 0.36319,0.76 1.34545,0.8104 l 1.00541,0.052 -0.12114,-2.9184 c -0.18055,-4.3578 -0.75955,-27.328 -0.68997,-27.3832 0.0332,-0.026 0.76185,1.5973 1.61894,3.608 3.1813,7.4623 11.27382,26.5734 11.27382,26.6231 0,0.028 0.47777,0.052 1.06109,0.052 0.93202,0 1.06102,-0.043 1.06102,-0.3495 0,-0.4576 3.76826,-30.3647 3.95019,-31.3542 0.16739,-0.9086 -0.0834,-1.5065 2.1925,5.2277 0.95609,2.8289 2.35789,6.9648 3.11434,9.1909 0.75673,2.2258 1.74802,5.1476 2.20319,6.4924 0.45449,1.345 1.45191,4.2854 2.21641,6.5343 0.76428,2.2489 1.38914,4.1273 1.38914,4.1737 0,0.047 0.2453,0.085 0.54509,0.085 0.41943,0 0.51897,-0.068 0.43349,-0.2948 -0.0611,-0.1624 -1.25406,-3.6724 -2.65156,-7.7997 -1.39761,-4.1274 -3.80255,-11.2227 -5.34504,-15.7676 -1.54185,-4.5448 -3.0008,-8.8893 -3.24126,-9.6545 -0.38735,-1.2334 -0.49194,-1.3913 -0.92041,-1.3913 -0.60075,0 -0.57437,-0.1025 -1.10544,4.3003 -1.23798,10.258 -3.64053,29.0908 -3.78337,29.6588 -0.16004,0.6366 -0.19084,0.5911 -1.19546,-1.7705 -0.56763,-1.3334 -3.69296,-8.7083 -6.94538,-16.3893 -3.25227,-7.6809 -5.96354,-14.0293 -6.02417,-14.1076 -0.0606,-0.078 -0.31372,-0.1 -0.56261,-0.048 -0.4499,0.093 -0.45139,0.1125 -0.3195,4.0736 0.073,2.1889 0.1848,5.9907 0.24868,8.4486 0.0639,2.458 0.20692,7.7699 0.3178,11.8046 0.11061,4.0346 0.19662,7.6015 0.19097,7.9258 -0.007,0.4261 -0.41606,-0.3254 -1.46668,-2.6979 -1.93689,-4.3744 -4.81704,-10.9029 -8.48109,-19.2247 -3.99337,-9.0696 -3.60229,-8.2892 -4.12838,-8.2295 -0.33185,0.038 -0.43289,0.1575 -0.39777,0.4721 0.0259,0.2319 0.95877,5.6199 2.07319,11.9734 1.11453,6.3534 2.17116,12.3864 2.34803,13.4067 0.17689,1.0203 0.36482,2.0825 0.41743,2.3607 0.0527,0.2785 -2.61101,-5.9065 -5.92021,-13.7438 -3.30873,-7.8375 -5.9976,-14.2686 -5.97507,-14.2915 0.0811,-0.082 7.61726,-1.228 11.30457,-1.7186 9.60184,-1.2776 19.53819,-2.1601 31.56589,-2.8034 4.96951,-0.2657 21.84968,-0.5791 22.16013,-0.4113 0.0858,0.046 -2.02335,6.6106 -4.68653,14.5872 -2.66391,7.9766 -5.35412,16.0436 -5.97815,17.9264 l -1.13534,3.4233 0.52781,-0.051 c 0.50413,-0.048 0.59571,-0.2527 1.98512,-4.4351 1.58203,-4.7596 3.21047,-9.6454 5.36923,-16.1049 0.75928,-2.2724 2.02642,-6.0857 2.81546,-8.4739 0.78913,-2.3882 1.48607,-4.3423 1.5483,-4.3424 0.0964,-2e-4 4.92762,27.605 5.5853,31.9145 0.20998,1.3736 0.25919,1.4754 0.71143,1.4754 0.26747,0 0.48657,-0.081 0.48657,-0.1805 0,-0.2236 -5.89033,-34.6241 -6.04471,-35.3016 l -0.11169,-0.4899 5.99577,0.1023 c 6.52202,0.1113 14.43793,0.4457 14.80334,0.6254 0.14975,0.073 -2.28572,6.1321 -7.02269,17.4677 -3.9885,9.5453 -7.29683,17.4501 -7.35238,17.5659 -0.0637,0.1329 0.0905,0.2107 0.41701,0.2107 0.49939,0 0.7765,-0.6175 7.49375,-16.6881 3.83637,-9.1787 6.99501,-16.6726 7.01929,-16.6531 0.0243,0.019 0.29199,6.8273 0.5952,15.1285 0.30345,8.3011 0.60705,15.7989 0.67507,16.6615 l 0.12416,1.5684 0.955,-0.051 0.95501,-0.051 1.5764,-3.5411 c 1.71145,-3.8466 5.3357,-11.9434 9.51094,-21.2485 1.45694,-3.2463 2.65126,-5.7505 2.65451,-5.565 0.003,0.1855 -0.0824,1.172 -0.19016,2.1922 -0.10803,1.0203 -0.25127,2.4242 -0.31828,3.1199 -0.39911,4.151 -1.86775,19.1312 -2.13534,21.7854 -0.17466,1.7331 -0.31732,3.1938 -0.31732,3.2462 0,0.052 0.46184,0.095 1.02705,0.095 h 1.02707 l 7.40733,-14.1514 c 4.07432,-7.7832 7.42699,-14.1363 7.45023,-14.1178 0.0233,0.019 -0.14733,1.0556 -0.37954,2.3047 -1.34948,7.2672 -4.6493,25.5402 -4.6493,25.7443 0,0.17 0.19892,0.2259 0.67192,0.1887 0.55084,-0.043 0.72004,-0.1591 0.93864,-0.6428 0.21635,-0.4783 0.27007,4.892 0.28317,28.2992 l 0.0161,28.8894 0.79546,-0.052 0.79559,-0.052 0.0541,-15.7253 z m 123.76154,-29.0485 v -12.4799 l -29.76032,0.043 -29.76004,0.043 v 12.3527 12.3526 h -32.09462 l -32.09456,-1e-4 v -16.3576 -16.3579 h 94.2148 94.21446 v 16.4422 16.4421 h -32.35985 -32.35987 z m -103.44459,5.7343 v -3.2886 h -7.53329 -7.53262 l -0.0581,3.1144 c -0.032,1.7129 -0.0106,3.2127 0.0475,3.3329 0.0842,0.1743 1.61915,0.2093 7.59068,0.1741 l 7.48584,-0.044 z m -14.32356,0 v -2.6982 h 6.79027 6.79057 v 2.6982 2.6981 h -6.79057 -6.79027 z m 33.95117,0 v -3.373 h -7.40378 c -6.55615,0 -7.41904,0.031 -7.53322,0.267 -0.17577,0.3641 -0.16407,6.2257 0.0128,6.3663 0.0779,0.062 3.46781,0.1123 7.53322,0.1123 h 7.39108 v -3.3726 z m -14.21711,0 v -2.6982 h 6.79059 6.79033 v 2.6982 2.6981 h -6.79033 -6.79059 z m 34.05737,0 v -3.2886 l -7.47952,-0.044 -7.4802,-0.044 v 3.3773 3.377 l 7.4802,-0.044 7.47952,-0.044 z m -14.3229,0 v -2.6982 h 6.79028 6.78997 v 2.6982 2.6981 h -6.78997 -6.79028 z m 98.24586,0 v -3.373 h -7.53265 -7.53299 v 3.373 3.3726 h 7.53299 7.53265 z m -14.42885,0 v -2.6982 h 6.8962 6.89623 v 2.6982 2.6981 h -6.89623 -6.8962 z m 33.82753,3.2704 c 0.29024,-0.088 0.33576,-0.5463 0.33576,-3.3728 v -3.2706 h -7.53316 -7.53259 v 3.373 3.3726 h 7.1973 c 3.95843,0 7.34791,-0.046 7.53269,-0.1022 z m -14.09371,-3.2704 v -2.6982 h 6.79029 6.79055 v 2.6982 2.6981 h -6.79055 -6.79029 z m 34.16352,0 v -3.3752 l -7.47997,0.044 -7.47969,0.044 -0.0576,3.3307 -0.0576,3.3306 h 7.53741 7.53745 z m -14.21726,0 v -2.6982 h 6.79025 6.79057 v 2.6982 2.6981 h -6.79057 -6.79025 z m -148.57814,-8.8957 0.0638,-3.2463 h -7.62176 -7.62136 l -0.0397,3.1216 c -0.0218,1.7166 0.0196,3.1975 0.0921,3.2905 0.0851,0.1092 2.77382,0.1534 7.59694,0.1247 l 7.466,-0.044 z m -14.38748,0.042 v -2.7826 h 6.79027 6.79057 v 2.7826 2.7826 h -6.79057 -6.79027 z m 33.95117,0 v -3.2885 h -7.5326 -7.53314 v 3.2885 3.2884 h 7.53314 7.5326 z m -14.21711,0 v -2.7826 h 6.79059 6.79033 v 2.7826 2.7826 h -6.79033 -6.79059 z m 34.15423,0 0.0216,-3.2885 h -7.53873 -7.53947 v 3.2885 3.2884 h 7.51781 7.51708 z m -14.41976,0 v -2.7826 h 6.79028 6.78997 v 2.7826 2.7826 h -6.78997 -6.79028 z m 98.24586,0 v -3.2885 h -7.53265 -7.53299 v 3.2885 3.2884 h 7.53299 7.53265 z m -14.28748,2.67 c -0.0777,-0.062 -0.14137,-1.3139 -0.14137,-2.7824 v -2.6702 h 6.8962 6.89623 v 2.7826 2.7826 h -6.75456 c -3.7152,0 -6.81869,-0.051 -6.8965,-0.1126 z m 34.02192,-2.67 v -3.2885 h -7.53316 -7.53259 v 3.2885 3.2884 h 7.53259 7.53316 z m -14.28785,2.67 c -0.0779,-0.062 -0.14162,-1.3139 -0.14162,-2.7824 v -2.6702 h 6.84329 6.84333 l -0.0629,2.7828 -0.0627,2.7828 h -6.6393 c -3.65099,0 -6.70219,-0.051 -6.78009,-0.1126 z m 34.0219,-2.67 v -3.2885 h -7.53297 -7.5329 v 3.2885 3.2884 h 7.5329 7.53297 z m -14.22275,2.7427 c -0.003,-0.024 -0.0269,-1.2779 -0.053,-2.7849 l -0.0476,-2.7405 6.8486,1e-4 h 6.84878 l -0.0584,2.7404 -0.0583,2.7403 -6.73734,0.045 c -3.7055,0.025 -6.73976,0.025 -6.74278,0 z M 803.168,228.9688 l 0.0574,-3.3305 h -7.64375 -7.64339 v 3.2602 c 0,1.7933 0.0664,3.3132 0.1475,3.3775 0.081,0.064 3.49436,0.096 7.58569,0.07 l 7.439,-0.047 z m -14.38109,-0.042 v -2.7823 h 6.79027 6.79057 v 2.7823 2.7826 h -6.79057 -6.79027 z m 33.95117,0.084 v -3.3727 h -7.5326 -7.53314 v 3.2602 c 0,1.7933 0.0636,3.3112 0.14143,3.3728 0.0779,0.062 3.46781,0.1126 7.53322,0.1126 h 7.39109 z m -14.21711,-0.084 v -2.7823 h 6.79059 6.79033 v 2.7823 2.7826 h -6.79033 -6.79059 z m 34.05737,0.084 v -3.2884 l -7.47952,-0.044 -7.4802,-0.044 v 3.377 3.3772 l 7.4802,-0.044 7.47952,-0.044 z m -14.3229,-0.042 v -2.7401 l 6.52473,0.04 c 3.58909,0.022 6.64476,0.041 6.79023,0.042 0.201,0 0.26529,0.6558 0.26529,2.7006 v 2.6982 h -6.78997 -6.79028 z m 98.24586,0.042 v -3.3727 h -7.53265 -7.53299 v 3.3727 3.3729 h 7.53299 7.53265 z m -14.381,-0.042 0.0582,-2.7401 h 6.79016 6.79002 l 0.0584,2.7401 0.0583,2.7404 h -6.90673 -6.9067 z m 34.0669,0 0.0575,-3.3305 h -7.53767 -7.53707 v 3.3748 3.3751 l 7.47957,-0.044 7.48016,-0.044 z m -14.3331,0 0.0584,-2.7401 6.72711,-0.045 6.72762,-0.044 0.0627,2.7849 0.0629,2.7852 h -6.8486 -6.84855 l 0.0584,-2.7405 z m 34.11569,0.042 v -3.3727 h -7.53297 -7.5329 v 3.2602 c 0,1.7933 0.0637,3.3112 0.14165,3.3728 0.0778,0.062 3.46721,0.1126 7.53264,0.1126 h 7.39158 z m -14.21726,0 v -2.6981 h 6.79025 6.79057 v 2.6981 2.6982 h -6.79057 -6.79025 z m -436.90909,19.3939 v -2.8662 l 72.0402,-0.043 72.04018,-0.043 v 2.909 2.9089 h -72.04018 -72.0402 z m -0.42403,-21.4178 v -17.0327 l 73.15376,0.042 73.15415,0.043 0.0541,16.9902 0.0541,16.9903 h -16.44579 c -11.78229,0 -16.44635,-0.052 -16.44635,-0.185 0,-0.3504 -2.46693,-4.12 -3.79673,-5.8017 -2.81406,-3.5576 -6.87007,-7.2863 -10.65832,-9.7976 -5.55346,-3.682 -12.83591,-6.6216 -19.99628,-8.0713 -5.50329,-1.1144 -9.50977,-1.489 -15.94513,-1.4907 -7.64083,0 -13.33232,0.6902 -20.03516,2.4367 -10.12122,2.6373 -19.22246,7.647 -26.09262,14.3633 -1.74864,1.7091 -4.99006,5.573 -6.07218,7.2376 l -0.84862,1.305 h -5.0396 -5.03934 v -17.0327 z m 130.71202,8.6851 v -2.2765 h -1.90982 -1.90982 v 2.2765 2.2766 h 1.90982 1.90982 z m 5.72893,-0.01 v -2.2829 l -1.96275,0.048 -1.9628,0.049 -0.0593,2.2344 -0.0593,2.2344 h 2.02205 2.02202 z m 5.72919,0 v -2.2829 l -1.96276,0.048 -1.96275,0.049 -0.0593,2.2344 -0.0593,2.2344 h 2.02206 2.02201 z M 639.614,225.6343 v -2.1923 h -2.01588 -2.01588 v 2.1923 2.1921 h 2.01588 2.01588 z m 5.51743,0 v -2.1923 h -1.99568 -1.99569 l -0.0271,2.1923 -0.027,2.1921 h 2.02274 2.02275 z m 5.72893,0 v -2.1923 h -2.01588 -2.01584 v 2.1923 2.1921 h 2.01584 2.01588 z m -5.56379,-9.9918 -0.0592,-2.2344 -1.96287,-0.049 -1.96275,-0.048 v 2.2829 2.2828 h 2.02205 2.02204 z m 5.56379,-0.042 v -2.2766 h -2.01588 -2.01584 v 2.2766 2.2765 h 2.01584 2.01588 z m 5.62315,0 v -2.1922 l -1.96295,-0.049 -1.96273,-0.048 v 2.2892 2.2892 l 1.96273,-0.049 1.96295,-0.048 z m -129.32923,28.2889 c 0.002,-0.07 0.332,-0.4298 0.73439,-0.8008 l 0.73149,-0.6746 0.008,0.8011 0.008,0.8009 h -0.74263 c -0.40853,0 -0.74095,-0.057 -0.73921,-0.1266 z m 3.40013,-1.5175 0.0335,-1.6443 1.61877,-1.3069 c 0.89029,-0.7189 1.69215,-1.3069 1.78254,-1.3069 0.0904,0 0.16433,1.328 0.16433,2.9511 v 2.9511 h -1.8162 -1.81647 z m 5.72093,-2.1012 0.10619,-3.7455 1.06104,-0.6475 c 1.99029,-1.2142 1.80349,-1.5845 1.80349,3.5792 v 4.5591 h -1.53867 -1.538 l 0.10595,-3.7457 z m 5.14274,-1.34 0.0559,-5.0853 1.37919,-0.5581 c 0.75857,-0.3071 1.4511,-0.5608 1.53872,-0.5641 0.0873,0 0.15874,2.5362 0.15874,5.6435 v 5.6493 h -1.59438 -1.59436 z m 5.25465,-0.8822 v -5.9675 l 1.00788,-0.1156 c 0.55455,-0.064 1.2228,-0.1564 1.48573,-0.2062 l 0.47709,-0.09 v 6.1734 6.1737 h -1.48501 -1.48569 z m 4.88035,-0.1879 v -6.1552 h 0.92854 c 0.51067,0 1.2266,0.047 1.59166,0.1053 l 0.66274,0.1054 v 6.0499 6.05 h -1.59103 -1.59191 z m 5.09278,0.2532 c 0,-3.2465 0.0377,-5.9023 0.0837,-5.9023 0.0461,0 0.71489,0.1548 1.48569,0.3441 l 1.40136,0.3438 v 5.5584 5.5582 h -1.48501 -1.48569 z m 5.09259,0.7426 v -5.1593 l 1.00794,0.4667 c 0.55462,0.2566 1.31741,0.6241 1.69532,0.8169 l 0.687,0.3505 0.003,4.3424 0.003,4.3424 h -1.69755 -1.69798 v -5.1596 z m 5.47242,1.523 0.0611,-3.637 1.25121,0.8616 c 0.6887,0.474 1.28156,1.0291 1.31821,1.2336 0.0367,0.2048 0.0379,1.4536 0.003,2.7753 l -0.064,2.4031 -1.31517,1e-4 -1.315,2e-4 0.061,-3.6369 z m 4.71304,1.8509 v -1.7859 l 0.80658,0.816 c 0.735,0.7435 1.85937,2.0173 2.24675,2.5446 0.11831,0.161 -0.22517,0.211 -1.4495,0.211 h -1.60383 z m 6.06404,1.3033 c 0.19738,-0.2655 0.67641,-0.7779 1.0651,-1.1384 l 0.70607,-0.6558 0.008,1.1382 0.008,1.1384 h -1.07295 -1.07293 z m 3.69689,-1.58 v -2.0624 l 1.75095,-1.3206 c 2.72492,-2.0556 2.49299,-2.232 2.49299,1.8981 v 3.5473 h -2.12204 -2.1219 z m 6.15364,-2.1202 v -4.1822 l 1.6494,-0.7925 c 0.90747,-0.4357 1.71902,-0.7923 1.80384,-0.7923 0.0849,0 0.15443,2.2387 0.15443,4.9748 v 4.9748 h -1.804 -1.80367 z m 5.68726,-1.1716 c 0.0354,-2.9448 0.13097,-5.4012 0.21225,-5.4582 0.20304,-0.1428 2.17383,-0.6548 2.52017,-0.6548 0.22684,0 0.2802,1.0928 0.2802,5.7335 v 5.7337 l -1.53812,1e-4 -1.53853,1e-4 z m 4.92284,-0.6095 v -5.9637 l 0.98449,-0.1074 c 0.54125,-0.059 1.23345,-0.1073 1.5382,-0.1073 l 0.55366,-1e-4 -0.0581,6.0711 -0.058,6.0711 h -1.48046 -1.47986 z m 5.09221,-0.1073 c 0,-4.4152 0.0657,-6.071 0.2408,-6.071 0.13257,0 0.84867,0.089 1.59183,0.1979 l 1.35037,0.1977 v 5.8734 5.873 h -1.59108 -1.59192 z m 5.24619,0.5668 c 0.0261,-3.0274 0.087,-5.5359 0.13529,-5.5743 0.0484,-0.038 0.81463,0.2122 1.70316,0.5567 l 1.61566,0.6264 v 4.9476 4.9478 h -1.7508 -1.75068 z m 5.36404,1.1196 c 0,-2.4114 0.0798,-4.3845 0.17751,-4.3845 0.0978,0 0.71485,0.3058 1.3711,0.6792 l 1.19387,0.6794 0.061,3.7055 0.061,3.7053 -1.43261,-2e-4 -1.43186,-1e-4 z m 4.88032,1.3958 v -2.9888 l 1.48501,1.1716 1.48569,1.1713 v 1.8175 1.8172 h -1.48569 -1.48501 z m 5.06343,2.1914 0.0798,-0.7976 0.71403,0.6711 c 0.39299,0.369 0.71562,0.7277 0.71736,0.7973 0.002,0.07 -0.35538,0.1266 -0.7941,0.1266 h -0.79701 z m -48.92901,-1.2755 c -1.44769,-1.6473 -2.30744,-2.4621 -4.37353,-4.1446 -5.86021,-4.7718 -12.18642,-7.1626 -19.20731,-7.2587 -6.68787,-0.092 -13.16111,2.5251 -21.01738,8.4961 l -1.78182,1.3545 1.0951,-1.3026 c 4.75126,-5.652 12.15094,-10.9076 19.97479,-14.1877 12.18865,-5.1095 28.64563,-6.5086 42.96944,-3.6534 12.08227,2.4084 21.8767,7.8371 28.98545,16.0651 0.70062,0.8112 1.60801,1.9436 2.0153,2.5166 l 0.74115,1.0422 -2.3962,-1.9326 c -9.35754,-7.5457 -17.9638,-9.7917 -27.64475,-7.2142 -5.76507,1.5349 -12.10956,5.3178 -16.48788,9.8305 -0.81876,0.8438 -1.55602,1.5546 -1.63769,1.5795 -0.0821,0.025 -0.638,-0.511 -1.23467,-1.1907 z m 180.01087,-23.6917 c -0.20904,-5.6318 -0.50441,-13.4647 -0.65656,-17.4067 -0.15155,-3.9419 -0.25442,-7.1859 -0.22798,-7.2089 0.13538,-0.1179 16.02288,1.2414 16.20515,1.3864 0.0395,0.032 -1.59887,3.8018 -3.64117,8.3785 -8.66872,19.4266 -11.15873,24.9781 -11.22731,25.0326 -0.04,0.032 -0.24329,-4.5502 -0.45213,-10.1819 z m 13.25498,10.0676 c -0.0115,-0.2036 2.08874,-21.91 3.07861,-31.8167 0.0766,-0.7652 0.19945,-1.391 0.27315,-1.3908 0.47479,0 10.2975,1.278 13.18424,1.7133 1.9256,0.2904 4.07426,0.614 4.77418,0.7192 1.50484,0.226 1.48539,-0.073 0.21488,3.3007 -0.50651,1.3449 -1.7507,4.684 -2.76518,7.4201 -1.01441,2.736 -2.30003,6.189 -2.85641,7.6729 l -1.012,2.6983 -0.68978,0.054 c -0.67439,0.053 -0.68668,0.042 -0.56181,-0.5058 0.0702,-0.3084 0.60258,-3.1786 1.18379,-6.3786 0.58081,-3.1997 1.40714,-7.7393 1.83638,-10.0878 0.77915,-4.2677 0.78466,-4.771 0.0496,-4.5408 -0.15393,0.048 -3.8065,6.8312 -8.1172,15.0733 -9.06434,17.3313 -8.57334,16.413 -8.59244,16.0683 z m 12.52101,-3.9633 c 0.0102,-0.1964 0.0606,-0.2364 0.12841,-0.102 0.0614,0.1218 0.0538,0.2673 -0.0168,0.3233 -0.0706,0.056 -0.12088,-0.043 -0.11165,-0.2213 z m 3.38412,-5.6776 c 0.003,-0.023 1.8059,-4.8611 4.00606,-10.7506 2.19989,-5.8897 3.98811,-10.7201 3.97302,-10.7343 -0.0779,-0.073 -7.13122,-1.1551 -10.84102,-1.6627 -7.66715,-1.0492 -18.68362,-2.175 -24.8884,-2.5436 l -1.9628,-0.1165 v -4.782 -4.782 h 41.27198 41.27214 v 17.707 17.7069 h -26.41865 c -14.52977,0 -26.41542,-0.019 -26.41233,-0.042 z m 36.02019,-24.5367 -0.0588,-2.4874 h -2.22794 -2.22834 l -0.0588,2.4874 -0.0587,2.4874 h 2.34588 2.34554 z m 6.36546,0 -0.0586,-2.4874 h -2.22798 -2.22787 l -0.0586,2.4874 -0.0588,2.4874 h 2.34526 2.34535 z m 6.20124,-0.048 v -2.5355 l -2.17522,0.048 -2.17494,0.048 -0.0588,2.4874 -0.0585,2.4874 h 2.23357 2.23391 z m -36.92185,-7.6671 v -2.4453 h -2.22827 -2.22809 v 2.4452 2.4453 h 2.22809 2.22827 z m 6.36597,0 v -2.4453 h -2.22798 -2.22831 v 2.4452 2.4453 h 2.22831 2.22798 z m 11.67066,-0.01 v -2.451 l -2.28142,0.048 -2.28102,0.048 -0.0383,2.4031 -0.038,2.4031 h 2.31897 2.31975 z m 6.36597,0.01 v -2.4453 h -2.22813 -2.22823 v 2.4452 2.4453 h 2.22823 2.22813 z m 6.36542,-0.01 v -2.451 l -2.28102,0.048 -2.28087,0.048 -0.0588,2.4031 -0.0589,2.4031 h 2.33972 2.33986 z m 6.15383,0.01 v -2.4453 h -2.22824 -2.22787 v 2.4452 2.4453 h 2.22787 2.22824 z m 17.56419,31.8424 c 0.75936,-0.8458 4.57703,-3.6835 6.40483,-4.7606 12.81005,-7.5485 28.56159,-7.4037 41.4933,0.3813 1.6703,1.0056 6.2063,4.4314 6.03125,4.5548 -0.0494,0.035 -12.29973,0.1165 -27.22308,0.1817 l -27.13307,0.1186 z m -295.49247,-11.7323 0.0593,-2.2345 h 22.1743 22.1745 l 0.0589,2.2345 0.059,2.2344 h -22.29246 -22.29292 z m 231.93376,65.4314 0.0544,-13.3645 7.90415,-0.044 7.90414,-0.044 v 13.4086 13.4088 h 0.84884 0.8488 v -14.0813 -14.0811 h -9.65489 -9.65459 v 13.9688 c 0,7.6826 0.0636,14.0195 0.14144,14.0813 0.0779,0.062 0.45885,0.1123 0.84758,0.1123 h 0.70575 z m 22.59138,7.6148 0.0447,-5.6333 6.69,-0.045 6.68961,-0.045 0.056,5.6919 c 0.0518,5.2658 0.0837,5.6957 0.42741,5.7483 0.34771,0.053 0.37092,-0.3239 0.37092,-6.0287 v -6.0854 l -7.58566,0.044 -7.58622,0.044 -0.0559,5.8171 c -0.0308,3.1992 -0.0127,5.9061 0.04,6.0154 0.0527,0.1092 0.26888,0.1781 0.48059,0.1534 0.36111,-0.042 0.38687,-0.384 0.42869,-5.6781 z m 18.52279,0.016 0.10617,-5.6493 6.84312,-0.045 6.84312,-0.044 v 5.7361 c 0,5.6238 0.008,5.7361 0.42462,5.7361 0.41629,0 0.42409,-0.1123 0.42409,-6.071 v -6.0708 h -7.74496 -7.74498 v 5.9585 c 0,3.2771 0.0597,6.006 0.13266,6.064 0.53565,0.4257 0.6141,-0.1888 0.71616,-5.6145 z M 857.538,260.5427 v -24.79 l 5.88857,-0.017 c 3.23857,-0.01 6.127,-0.02 6.41884,-0.024 2.05637,-0.027 2.05839,0 0.0606,0.794 -4.60534,1.8322 -7.76435,5.544 -8.07415,9.4864 l -0.10972,1.3967 h 14.80792 14.80836 l -0.14534,-1.3914 c -0.16894,-1.6177 -1.02714,-3.7465 -2.06614,-5.1248 -1.46693,-1.9453 -4.25395,-3.835 -6.97388,-4.7284 l -1.16723,-0.3836 h 7.16102 7.16079 l 0.0539,24.7479 0.0538,24.7475 h 0.84867 0.84889 v -25.4645 -25.4641 h -20.58345 -20.5827 l -0.0545,25.2956 c -0.03,13.9128 -0.009,25.3905 0.0464,25.5067 0.0555,0.1159 0.43831,0.2107 0.85005,0.2107 h 0.7493 v -24.7897 z m 5.09279,-14.476 c 0,-0.8862 0.83081,-3.0702 1.63358,-4.2937 1.18322,-1.804 3.677,-3.7326 6.00829,-4.6467 4.49875,-1.7645 9.78769,-1.5121 13.87872,0.6624 3.39011,1.8023 5.46858,4.5099 6.17177,8.0401 l 0.14256,0.717 h -13.9176 -13.91732 z m 0.37379,31.9771 0.0554,-7.2043 6.01095,-0.047 c 3.30605,-0.026 6.1685,-0.023 6.36108,0.01 0.31794,0.049 0.35532,0.7169 0.40562,7.2516 l 0.0554,7.1971 0.79561,0.053 0.7958,0.052 v -7.2615 -7.2619 h 6.36584 6.36602 v 7.2516 7.2514 h 0.63642 0.63659 v -18.2972 -18.2973 h -14.85367 -14.8537 v 18.3085 18.3085 l 0.58393,-0.053 0.58332,-0.053 0.0554,-7.2041 z m 0.0508,-18.4709 4e-5,-9.8232 h 13.58018 13.58066 v 9.7788 9.7784 l -13.5807,0.045 -13.5802,0.045 z m 49.391,19.9815 0.0557,-5.6895 h 6.78772 6.78751 v 5.7337 c 0,5.6215 0.008,5.7338 0.42398,5.7338 0.41678,0 0.42464,-0.1123 0.42464,-6.071 v -6.0708 h -7.63896 -7.63922 v 6.0831 c 0,5.7029 0.0232,6.0799 0.37158,6.0266 0.34369,-0.053 0.37565,-0.4823 0.42707,-5.7459 z m 18.72358,0.1286 v -5.6494 h 6.68101 6.68117 l 0.056,5.6073 c 0.0546,5.48 0.0655,5.6071 0.48057,5.6071 0.41497,0 0.42543,-0.128 0.48361,-5.9444 l 0.0597,-5.9444 h -7.64543 -7.64542 v 5.9866 c 0,5.8743 0.008,5.9866 0.42404,5.9866 0.41638,0 0.42477,-0.1123 0.42477,-5.6494 z m 19.88937,-7.6731 0.0492,-13.2381 7.96112,-0.044 7.96116,-0.044 v 13.3346 13.3347 l 0.7955,-0.052 0.79573,-0.052 0.0542,-13.9547 0.0543,-13.9548 h -9.76194 -9.76211 v 13.8847 c 0,7.6362 0.0682,13.9386 0.15166,14.0049 0.0831,0.066 0.48886,0.098 0.90175,0.07 l 0.75022,-0.05 z m -910.683404,-2.361 v -3.7101 h 11.458551 11.4585 v 3.7101 3.7102 h 0.530503 0.530454 v -3.7102 -3.7101 h 15.278092 15.278036 v 3.7101 3.7102 h 0.530484 0.53045 v -3.7102 -3.7101 h 18.567094 18.56704 v 3.7101 3.7102 h 0.53049 0.53045 v -3.7102 -3.7101 h 19.84024 19.84021 v 3.4572 3.457 h 0.53048 0.5305 v -3.457 -3.4572 h 17.93045 17.93045 v 3.6258 3.6259 h 0.50582 c 0.70901,0 0.76122,-0.2733 0.76456,-4.0052 l 0.003,-3.2465 h 13.58023 13.58082 v 3.7101 3.7102 h 0.53013 0.53068 v -3.7102 -3.7101 h 14.64125 14.64133 v 3.6258 3.6259 h 1.16729 1.16694 v -18.2131 -18.213 h -1.96941 -1.96939 l -1.26653,-1.0239 c -5.04586,-4.0799 -15.76432,-9.4669 -26.46909,-13.3031 -23.49976,-8.4214 -52.27732,-13.089 -85.92763,-13.9372 l -4.6085,-0.1161 0.63434,-0.6365 c 1.46928,-1.4743 1.57336,-1.8651 1.64736,-6.1862 l 0.0672,-3.9208 h -7.87944 -7.87943 l 0.0672,3.9208 c 0.0628,3.6702 0.0983,3.9748 0.55425,4.7641 0.26792,0.4637 0.76327,1.1174 1.10077,1.4525 l 0.61368,0.6094 -3.43493,0.1129 c -20.96849,0.6888 -39.305884,2.8177 -57.756774,6.7057 -21.770196,4.5869 -43.7246,12.0456 -58.539849,19.8876 l -3.156992,1.6708 h -2.200999 -2.200931 v 18.213 18.2131 h 1.167074 1.167071 v -3.6259 -3.6258 h 4.562189 4.562173 v 3.637 3.6371 l 0.583575,-0.053 0.583523,-0.053 v -3.5836 -3.5838 l 7.585971,10e-5 h 7.585954 v 3.7101 3.7102 h 0.636597 0.636548 z m -26.73653,-8.8536 v -4.3 h 4.562188 4.562173 v 4.3 4.3005 h -4.562143 -4.562188 z m 10.393824,4.2583 c -0.0021,-0.023 -0.02593,-1.9583 -0.05308,-4.3005 l -0.04928,-4.2578 h 7.585974 7.585952 v 4.3 4.3005 h -7.532929 c -4.143094,0 -7.534576,-0.019 -7.536632,-0.042 z m 16.342706,-4.2597 v -4.3016 l 11.405472,0.044 11.405476,0.043 0.05673,4.258 0.05668,4.2583 H 51.838153 40.375956 Z m 23.978008,0 v -4.3012 h 8.559332 c 4.707597,0 11.584334,0.05 15.281635,0.1116 l 6.722385,0.1116 -0.0567,4.1464 -0.05666,4.1465 -15.225011,0.043 -15.224983,0.043 z m 31.617032,0.083 v -4.2159 h 18.567094 18.56704 v 4.2159 4.2161 H 114.53806 95.970966 Z m 38.336574,4.1035 c -0.0778,-0.062 -0.1415,-1.9589 -0.1415,-4.216 V 256.661 H 154.029 c 18.02516,0 19.85097,0.025 19.73407,0.2667 -0.0708,0.1469 -0.12875,2.0439 -0.12875,4.2162 v 3.9491 h -19.59269 c -10.77597,0 -19.65631,-0.051 -19.73409,-0.1126 z m 40.59993,-4.1035 v -4.2159 h 17.93045 17.93045 v 4.2159 4.2161 H 192.83795 174.9075 Z m 37.13419,0 v -4.2123 l 12.9969,0.091 c 7.14844,0.05 13.25954,0.086 13.58023,0.081 l 0.58389,-0.01 v 4.1317 4.1318 h -13.58082 -13.5802 v -4.2126 z m 28.22183,0.081 v -4.1317 h 14.64125 14.64133 v 4.1317 4.1318 h -14.64133 -14.64125 z m -96.629,-5.2698 -9.52302,-0.046 0.0803,-4.3807 0.0803,-4.3806 19.68109,-0.044 19.68112,-0.044 -2e-5,4.5113 -1e-5,4.5108 -10.23842,-0.04 c -5.63114,-0.022 -14.52378,-0.061 -19.76141,-0.086 z m 31.27298,-4.315 v -4.4415 l 9.26527,-0.1119 c 5.09591,-0.061 13.16463,-0.1116 17.93049,-0.1116 h 8.66514 v 4.5532 4.553 H 192.83795 174.9075 Z m 37.13419,-0.1118 v -4.5532 h 13.5802 13.58082 v 4.5532 4.553 h -13.58082 -13.5802 z m 28.27151,0.042 0.0566,-4.5112 14.58813,-0.043 14.58818,-0.043 v 4.5543 4.5542 h -14.64479 -14.6447 z m -224.074389,4.2165 -2.599385,-0.053 v -4.295 -4.2953 h 4.562188 4.562173 v 4.3847 4.3846 l -1.962784,-0.036 c -1.079543,-0.02 -3.132529,-0.06 -4.562192,-0.089 z m 7.794503,0.084 c -0.0021,-0.023 -0.02589,-1.9962 -0.05308,-4.3844 l -0.04935,-4.3427 h 7.585974 7.585952 v 4.3847 4.3846 h -7.532929 c -4.143094,0 -7.534546,-0.019 -7.536568,-0.042 z m 16.342642,-4.3424 v -4.3847 h 11.458551 11.4585 v 4.3847 4.3846 H 51.834507 40.375956 Z m 23.978008,0 v -4.3847 h 15.278092 15.278036 v 4.3847 4.3846 H 79.632026 64.353964 Z m 31.617032,0 v -4.3847 h 18.567094 18.56704 v 4.3847 4.3846 H 114.53806 95.970966 Z m -71.525058,-5.3965 -0.515053,-0.084 v -3.5833 -3.5838 l 7.585974,1e-4 7.585952,1e-4 v 3.6214 3.621 l -7.070921,0.047 c -3.889002,0.026 -7.302699,0.01 -7.585952,-0.038 z m 15.88476,-0.2529 c -0.03346,-0.1854 -0.03312,-1.8361 8.51e-4,-3.6679 l 0.06155,-3.3305 h 11.450032 11.449971 v 3.6229 3.6226 l -11.45073,0.045 c -11.310726,0.044 -11.451535,0.041 -11.511578,-0.2922 z m -26.691272,-3.3728 v -3.6257 h 4.562188 4.562173 v 3.6257 3.6256 h -4.562143 -4.562188 z m 50.714538,0 v -3.6257 h 15.278092 15.278036 v 3.6257 3.6256 H 79.632026 64.353964 Z m 31.617032,0 v -3.6257 h 18.567094 18.56704 v 3.6257 3.6256 H 114.53806 95.970966 Z m 38.301174,0 v -3.6257 h 19.68107 19.68111 v 3.6257 3.6256 h -19.68111 -19.68107 z m 40.63533,0 v -3.6268 l 17.98351,0.043 c 16.97662,0.041 17.98201,0.06 17.95698,0.3382 -0.0146,0.1625 -0.0384,1.7749 -0.053,3.5836 l -0.0266,3.2891 H 192.83795 174.9075 v -3.6265 z m 37.13419,0 v -3.6257 h 13.5802 13.58082 v 3.6257 3.6256 h -13.58082 -13.5802 z m 28.22183,0 v -3.6257 h 14.64125 14.64133 v 3.6257 3.6256 H 254.90474 240.26349 Z M 21.278389,235.6727 c 0,-0.097 5.052147,-2.4941 7.74514,-3.6745 16.229458,-7.1129 35.616418,-12.9119 55.686044,-16.6571 20.922787,-3.9043 41.177187,-5.5946 63.991837,-5.3399 18.1517,0.2028 32.54715,1.2549 47.756,3.4909 27.96935,4.1118 51.74943,11.8807 66.82927,21.8328 l 0.63638,0.42 H 142.60084 c -66.727345,0 -121.322421,-0.032 -121.322421,-0.073 z M 140.72844,207.9498 c -1.09883,-0.5539 -2.04624,-1.3946 -2.46371,-2.1863 -0.20778,-0.3941 -0.3065,-1.4862 -0.33916,-3.7523 l -0.0461,-3.1963 h 6.2067 l 6.20671,1e-4 v 3.2095 c 0,3.5944 -0.0824,3.8898 -1.41171,5.0615 -1.2491,1.101 -2.09307,1.3333 -4.85954,1.3376 -2.21476,0 -2.39852,-0.023 -3.29318,-0.4738 z m 804.44633,56.2887 v -6.5689 h -7.42714 -7.42648 v 6.5805 6.5804 l 7.42648,-0.012 7.42714,-0.012 v -6.5687 z m -14.00481,-0.076 v -5.818 h 6.57767 6.57838 v 5.818 5.8179 h -6.57838 -6.57767 z m -107.63373,-0.042 -0.0554,-6.5349 h -7.42655 -7.42709 l -0.0557,6.3233 c -0.0307,3.4779 -0.01,6.4185 0.0464,6.5349 0.0791,0.1637 1.77415,0.2113 7.53841,0.2113 h 7.43563 z m -13.95421,-0.042 v -5.9072 l 6.52535,0.045 6.52466,0.044 v 5.8181 5.8178 l -6.52466,0.045 -6.52535,0.044 z m 33.10235,0 v -6.5769 h -7.42652 -7.42704 v 6.5769 6.5768 h 7.42704 7.42652 z m -14.00487,0 v -5.9023 h 6.57835 6.57781 v 5.9023 5.9022 h -6.57781 -6.57835 z m 97.39779,0 v -6.5769 h -7.42712 -7.42661 v 6.5769 6.5768 h 7.42661 7.42712 z m -13.90836,5.6901 c -0.0562,-0.1165 -0.0771,-2.7536 -0.0463,-5.8601 l 0.0558,-5.6481 6.52473,-0.044 6.52521,-0.045 v 5.9047 5.9047 h -6.47887 c -5.00669,0 -6.50156,-0.048 -6.5806,-0.2121 z M 482.16579,267.391 v -2.59 l 0.97828,-1.5837 c 0.53778,-0.8713 3.53412,-5.8337 6.65815,-11.0277 3.12423,-5.1943 6.80243,-11.3032 8.17415,-13.5755 1.37168,-2.2724 2.99521,-4.9664 3.60793,-5.9867 0.61331,-1.0202 1.79749,-2.9879 2.63189,-4.3726 l 1.51683,-2.5175 -0.30315,-0.6865 c -0.16711,-0.3777 -2.03701,-4.1775 -4.1557,-8.444 -9.76543,-19.6656 -14.68504,-29.6821 -14.79645,-30.1255 -0.0665,-0.2652 -0.22866,-0.4934 -0.35985,-0.5072 -0.13144,-0.014 -0.38234,-0.037 -0.55743,-0.053 -0.17466,-0.015 -0.4933,-0.09 -0.70797,-0.1674 -0.28513,-0.1022 -0.51821,-0.031 -0.86834,0.2634 -0.26348,0.2217 -3.96012,3.2868 -8.21558,6.8113 -4.25526,3.5246 -10.16227,8.4193 -13.12689,10.8772 -2.96459,2.4579 -5.94307,4.9242 -6.61858,5.4808 -0.67563,0.5563 -4.21325,3.4921 -7.8605,6.5237 l -6.63258,5.5121 -8.07202,0.011 -8.07254,0.011 -3.12758,-15.4725 c -1.72041,-8.5099 -3.12433,-15.9468 -3.12066,-16.5265 0.005,-0.7286 -0.0753,-1.057 -0.25886,-1.0637 -0.14599,-0.01 -0.67373,-0.043 -1.17363,-0.084 -0.6141,-0.051 -0.9316,-0.01 -0.97984,0.1361 -0.0391,0.116 -0.26146,0.856 -0.49448,1.6444 -0.23295,0.7884 -2.30276,6.8214 -4.59964,13.4067 -5.77136,16.5474 -5.85819,16.7953 -6.09894,17.4119 l -0.21357,0.548 -68.04511,-0.021 c -37.42497,-0.012 -68.71153,-0.069 -69.52574,-0.1265 l -1.4802,-0.1057 -0.88587,-2.5295 c -5.56885,-15.8975 -9.93316,-28.5228 -10.14445,-29.343 -0.25041,-0.9724 -0.28797,-1.0139 -0.96215,-1.0664 -0.38615,-0.03 -0.92705,-0.01 -1.20269,0.045 -0.45817,0.091 -0.5015,0.1883 -0.5015,1.1235 0,0.563 -1.19457,6.9171 -2.65547,14.1202 -1.46015,7.2033 -2.86255,14.1401 -3.11612,15.4152 l -0.46023,2.319 -0.96859,0.01 -0.96866,0.01 1.80366,0.7417 1.80348,0.7421 61.1123,0.01 c 33.61128,0 73.19731,0.059 87.96826,0.1205 l 26.85598,0.1118 0.34422,1.8665 c 0.1891,1.0265 0.32316,1.8827 0.29788,1.9028 -0.0253,0.02 -1.33177,0.1554 -2.90383,0.3008 -4.44525,0.4113 -4.23702,0.365 -4.23702,0.9412 0,0.6006 -0.13376,0.5943 3.97862,0.1893 l 3.02382,-0.2976 -0.002,0.3456 c 0,0.19 -0.42915,2.1669 -0.95224,4.3929 -0.52282,2.226 -1.16672,4.9769 -1.43097,6.1129 l -0.48079,2.0657 -2.38676,10e-5 -2.38759,2e-4 v 1.6021 1.6018 h -70.87309 -70.87284 v 0.7591 0.7589 h 71.82768 71.82791 v -1.6023 -1.6018 h 1.16713 c 1.09729,0 1.16731,0.025 1.16731,0.4132 0,0.2272 -0.0931,0.7775 -0.20684,1.2225 -0.64997,2.5483 -4.68215,19.9989 -4.63009,20.0395 0.0344,0.027 0.41607,0.1014 0.84875,0.1656 0.70649,0.105 0.79823,0.077 0.9073,-0.28 0.11474,-0.375 2.14735,-9.0046 4.15502,-17.64 l 0.91151,-3.9208 h 8.98029 8.9803 v 1.5356 1.5357 l 18.51367,-0.1006 c 10.18287,-0.055 19.01534,-0.1468 19.62851,-0.203 l 1.11389,-0.1023 v 7.7463 c 0,4.2603 0.0631,9.9214 0.14037,12.58 l 0.13984,4.8334 h 0.815 0.8147 v -2.5897 z m 0,-14.9204 v -8.9659 l -0.47775,-0.01 c -0.26229,0 -2.43038,0 -4.81772,0.01 -2.38703,0.01 -4.29698,-0.021 -4.24392,-0.062 0.0531,-0.041 0.71731,-0.4343 1.47595,-0.8736 4.9886,-2.8893 9.9575,-7.1532 12.46327,-10.6955 l 1.01068,-1.4283 0.10625,-2.113 0.10598,-2.1128 7.79815,-0.044 c 4.28907,-0.024 7.79853,0 7.79853,0.065 0,0.06 -2.45054,4.1778 -5.44534,9.1507 -2.99478,4.9729 -6.03835,10.0282 -6.76306,11.2339 -5.59296,9.3006 -8.85035,14.6822 -8.9242,14.7418 -0.0478,0.039 -0.0868,-3.9644 -0.0868,-8.8956 z m -39.25639,-10.315 v -1.5179 h -9.76469 -9.76503 l 0.10889,-0.3795 c 0.06,-0.2086 0.78202,-3.2631 1.60427,-6.7875 l 1.49438,-6.4083 -0.43242,-2.0489 c -0.2384,-1.127 -0.43324,-2.0945 -0.43324,-2.1503 0,-0.056 13.5595,-0.1012 30.1317,-0.1012 h 30.13183 v 3.5034 3.5032 l -0.96324,1.3437 c -2.87177,4.005 -7.97952,8.1434 -14.06094,11.3928 l -2.18649,1.1681 H 455.84189 442.9094 Z m 44.77315,-18.9707 v -1.9383 l -15.486,-0.043 -15.48658,-0.043 10.93332,-12.9851 c 6.01335,-7.1419 12.09881,-14.3701 13.52378,-16.0628 l 2.58978,-3.0777 0.12877,15.2196 c 0.0709,8.3708 0.1426,15.5837 0.15938,16.029 l 0.0305,0.8095 1.22008,-0.051 1.21974,-0.051 -0.003,-15.1233 c -0.002,-8.3179 0.0153,-15.109 0.0376,-15.0914 0.0222,0.018 3.66624,7.3544 8.09726,16.3039 4.43151,8.9495 8.25634,16.6701 8.50054,17.1573 l 0.44301,0.8854 h -7.95415 -7.95414 v -1.9383 z m -80.42168,-2.0211 c 0,-0.1021 7.07864,-20.4614 7.5353,-21.6737 0.19437,-0.5151 0.28721,-0.6234 0.28884,-0.3373 0.002,0.2319 -0.78302,5.2784 -1.74293,11.2145 l -1.74567,10.7928 -2.16749,0.048 c -1.19253,0.026 -2.16805,0.01 -2.16805,-0.044 z m 6.15376,-0.1351 c 0,-0.1187 0.28083,-1.9208 0.62454,-4.0052 0.34365,-2.0842 1.01381,-6.218 1.48905,-9.1858 0.47587,-2.968 0.90005,-5.5103 0.94237,-5.6494 0.0424,-0.1391 0.0884,4.0916 0.10192,9.4016 l 0.0247,9.6545 h -1.59124 c -1.15103,0 -1.5913,-0.06 -1.5913,-0.2157 z m 5.75448,-10.5349 c 0.0177,-7.4738 0.0873,-10.468 0.22932,-9.8232 0.1118,0.5101 1.05358,5.1392 2.09135,10.2868 1.03802,5.1478 1.9355,9.5683 1.9935,9.8231 l 0.10569,0.4639 h -2.22236 -2.22271 z m 26.62907,9.1907 c 1.05911,-0.8582 8.77327,-7.2324 17.14289,-14.1656 8.36963,-6.9331 15.26349,-12.6057 15.31962,-12.6057 0.0563,0 -5.15578,6.2399 -11.5827,13.8664 l -11.68469,13.8663 0.48305,0.2954 c 0.46373,0.2839 0.24096,0.2958 -5.56031,0.2994 h -6.04339 l 1.92553,-1.5599 z m -197.54734,0.8433 c 0.0603,-0.3015 1.04865,-5.1393 2.19667,-10.7509 l 2.0865,-10.2025 0.0183,10.7507 0.0183,10.7507 h -2.21428 -2.21472 l 0.10932,-0.548 z m 6.89534,-9.0222 c 0.0159,-5.2636 0.0639,-9.4185 0.10648,-9.233 0.0428,0.1855 0.70105,4.2455 1.46307,9.0221 0.76219,4.7767 1.44106,8.9316 1.50869,9.2331 l 0.123,0.548 h -1.61541 -1.6147 z m 3.17811,-1.4032 c -0.96931,-6.0354 -1.72217,-11.0056 -1.67249,-11.0451 0.0497,-0.039 1.21964,3.1722 2.60031,7.1369 4.25661,12.2263 4.91631,14.1098 5.07592,14.5021 0.15317,0.377 0.14021,0.3795 -2.04353,0.3795 h -2.19775 z m -1.91707,-11.5538 c 0.0102,-0.1965 0.0606,-0.2365 0.1277,-0.1019 0.0614,0.1217 0.0539,0.2672 -0.0168,0.3232 -0.07,0.056 -0.1202,-0.044 -0.11097,-0.2213 z m 157.64392,61.3137 v -7.9259 h -3.60718 -3.60772 v 7.9259 7.926 h 3.60772 3.60718 z m -96.97301,-0.8431 v -7.9258 h -3.71335 -3.71375 v 7.9258 7.926 h 3.71375 3.71335 z m 43.02465,-0.295 -0.0552,-7.884 -3.66029,-0.046 -3.66071,-0.046 v 7.9301 7.9299 h 3.71592 3.71547 z m 36.54815,4.7641 v -1.0962 h -13.15609 -13.15579 v 1.0962 1.096 h 13.15579 13.15609 z m -95.69982,-0.084 v -1.0118 h -12.94376 -12.94378 v 1.0118 1.0118 h 12.94378 12.94379 z m 41.16608,0 v -1.0118 h -8.27598 -8.27566 v 1.0118 1.0118 h 8.27566 8.27598 z m 91.61668,-7.378 0.0551,-8.3053 h -3.71507 -3.71536 v 8.235 c 0,4.5295 0.0659,8.2876 0.14596,8.3516 0.0806,0.064 1.72799,0.096 3.66086,0.07 l 3.51364,-0.046 z m 39.30744,7.378 v -1.0118 h -13.26247 -13.26228 v 1.0118 1.0118 h 13.26228 13.26247 z m -76.39038,-5.4809 v -1.0962 h -13.15609 -13.15579 v 1.0962 1.0962 h 13.15579 13.15609 z m -95.69982,-0.084 v -1.0118 h -12.94376 -12.94378 v 1.0118 1.0119 h 12.94378 12.94379 z m 41.16608,0 v -1.0118 h -8.27598 -8.27566 v 1.0118 1.0119 h 8.27566 8.27598 z m 130.92412,0 v -1.0118 h -13.26247 -13.26228 v 1.0118 1.0119 h 13.26228 13.26247 z m -172.0902,-5.649 v -1.0962 h -12.94376 -12.94378 v 1.0962 1.096 h 12.94378 12.94379 z m 41.16608,0.084 v -1.0118 h -8.27598 -8.27566 v 1.0118 1.0119 h 8.27566 8.27598 z m 54.53374,0 v -1.0118 h -13.15609 -13.15579 v 1.0118 1.0119 h 13.15579 13.15609 z m 76.39038,-0.084 v -1.0962 h -13.26247 -13.26228 v 1.0962 1.096 h 13.26228 13.26247 z M 206.17673,200.9207 c -12.52799,-10.043 -17.4496,-13.8851 -17.68329,-13.8046 -0.17808,0.061 -0.51478,0.1204 -0.74819,0.1312 -0.6037,0.028 -0.95488,0.2432 -0.95488,0.5857 0,0.1625 -2.22731,4.6544 -4.94955,9.9818 -5.28342,10.3397 -5.11771,9.8978 -3.72242,9.9274 0.61934,0.013 0.23579,0.6943 6.14131,-10.9059 l 2.42456,-4.7626 0.0551,8.2618 0.0551,8.2618 h 0.47542 c 0.26153,0 0.83272,0.049 1.26937,0.1062 l 0.79394,0.1043 0.0548,-9.3085 0.0549,-9.3085 2.15784,2.499 c 1.18679,1.3744 2.85781,3.3021 3.71341,4.2837 0.85554,0.9817 4.03823,4.6417 7.07263,8.1334 5.82272,6.7001 5.57315,6.4744 7.49383,6.7807 l 0.7036,0.1122 -0.72554,-0.8167 c -0.39904,-0.4494 -3.00139,-3.435 -5.78297,-6.6349 -2.7816,-3.1999 -5.35505,-6.1595 -5.71883,-6.5769 -3.97952,-4.5664 -4.60669,-4.9782 9.04701,5.9409 l 12.59507,10.0724 1.69749,0.4114 c 0.93356,0.2261 1.72987,0.4172 1.76903,0.4249 0.0385,0.01 -7.74099,-6.2481 -17.28865,-13.902 z M 632.3997,195.522 v -2.4512 l -2.17511,0.048 -2.17496,0.048 -0.0598,2.1834 c -0.0329,1.2009 -0.0119,2.2822 0.0465,2.4031 0.0775,0.1603 0.68119,0.2197 2.23468,0.2197 h 2.12872 z m 6.36548,0.01 v -2.4453 h -2.22813 -2.22772 v 2.4453 2.4452 h 2.22772 2.22813 z m 6.36622,0 v -2.4453 h -2.22832 -2.22813 v 2.4453 2.4452 h 2.22813 2.22832 z m -494.87879,-0.4638 0.0659,-0.6324 h -6.16648 -6.16645 v 0.6812 0.6811 l 6.1006,-0.049 6.1006,-0.049 z m -4.09756,-2.7404 v -0.5059 l -2.38719,-0.048 -2.38719,-0.048 v 0.6012 0.6013 l 2.38719,-0.048 2.38719,-0.048 z m 486.40906,-4.511 0.0588,-2.4874 h -2.2334 -2.23363 v 2.5354 2.5355 l 2.17485,-0.048 2.17462,-0.048 z m 6.15368,0 0.0587,-2.4874 h -2.23374 -2.2334 v 2.4171 c 0,1.3295 0.067,2.4703 0.14849,2.5353 0.0816,0.065 1.0603,0.097 2.17494,0.07 l 2.0264,-0.048 z m 6.3662,0 0.0588,-2.4874 h -2.23403 -2.23379 v 2.5354 2.5355 l 2.17501,-0.048 2.17521,-0.048 z m 6.41293,0.042 v -2.5295 h -2.22785 -2.22802 v 2.4171 c 0,1.3295 0.0637,2.4678 0.14154,2.5296 0.0777,0.062 1.08031,0.1124 2.22809,0.1124 h 2.08624 z m 6.31842,-0.042 0.0588,-2.4874 h -2.23374 -2.23338 v 2.5415 2.5417 l 2.1746,-0.054 2.17502,-0.054 z m 6.36618,0 0.0586,-2.4874 h -2.23376 -2.23397 v 2.5153 2.5154 l 2.17515,-0.028 2.17523,-0.028 z M 508.50259,163.9545 c 0.0138,-8.6954 0.008,-15.9236 -0.0121,-16.0627 -0.0204,-0.1392 -0.20457,-0.438 -0.40927,-0.6642 -0.69824,-0.771 -1.40178,-1.0539 -2.8492,-1.1463 -1.68999,-0.1078 -3.06974,0.3369 -3.74692,1.2073 -0.42407,0.5456 -0.43004,0.7744 -0.42985,16.5145 l 1.9e-4,15.9612 h 3.71086 3.71122 z m -6.39052,-0.528 v -15.6734 l 0.6311,-0.4223 c 1.17251,-0.784 3.08324,-0.783 4.2577,0 l 0.63011,0.4215 -0.0542,15.6254 -0.0542,15.6255 -2.70538,0.047 -2.70513,0.047 z m 17.34771,0.087 0.0539,-16.166 -0.8015,-0.6371 c -1.65501,-1.3155 -4.17217,-1.3159 -5.82678,0 l -0.80022,0.6362 v 16.0966 c 0,8.8532 0.0659,16.1491 0.14628,16.2131 0.0806,0.064 1.72761,0.096 3.66022,0.07 l 3.51424,-0.046 z m -6.36448,-0.3326 0.0552,-15.7399 0.54512,-0.4072 c 0.47692,-0.3558 0.74667,-0.4072 2.13716,-0.4072 1.54396,0 1.61173,0.017 2.23931,0.5757 l 0.6469,0.5756 -0.0811,15.571 -0.0812,15.571 h -2.75852 -2.75821 l 0.0553,-15.7399 z m -164.82462,8.1511 v -2.8668 h -3.50146 -3.50098 v 2.8668 2.8669 h 3.50098 3.50146 z m 13.36808,0 v -2.8668 h -3.50089 -3.50154 v 2.8668 2.8669 h 3.50154 3.50089 z m 13.15603,0 v -2.871 l -3.44783,0.046 -3.44844,0.046 -0.0582,2.8247 -0.0582,2.8247 h 3.50661 3.50607 z m 13.15622,0 v -2.8668 h -3.39532 -3.39465 v 2.8668 2.8669 h 3.39465 3.39532 z M 707.09226,129.457 V 95.0022 l -0.59543,-0.4532 c -0.32703,-0.2492 -0.66157,-0.4531 -0.74276,-0.4531 -0.18897,0 -0.19505,69.5535 -0.006,69.7036 0.0778,0.062 0.41238,0.1125 0.74274,0.1125 h 0.60152 v -34.455 z m -2.3345,-0.939 V 93.2927 l -0.72826,-0.4416 c -0.40092,-0.2429 -0.78262,-0.4416 -0.84869,-0.4416 -0.0661,0 -0.12029,16.0071 -0.12029,35.5714 v 35.5714 l 0.58328,0.07 c 0.32105,0.039 0.70313,0.082 0.84878,0.096 0.21137,0.02 0.26518,-7.1187 0.26518,-35.2 z m -356.48708,32.1898 v -2.8668 h -3.50146 -3.50098 v 2.8668 2.8669 h 3.50098 3.50146 z m 353.8886,-33.0685 -0.0536,-35.7667 -0.9019,-0.4232 -0.90186,-0.4233 v 36.0939 36.094 l 0.47713,0.073 c 0.26293,0.04 0.69267,0.083 0.95539,0.096 l 0.47823,0.023 z m 6.84261,2.1878 V 96.9815 l -0.52398,-0.4731 -0.52367,-0.4732 -0.007,33.7148 -0.007,33.7148 0.53049,-0.396 0.53059,-0.3961 v -32.8456 z m -45.28945,32.2218 1.54564,-1.0881 0.0159,-37.0765 0.0159,-37.0764 -0.47764,0.09 c -0.26265,0.05 -1.02654,0.1424 -1.69719,0.2063 l -1.2204,0.1163 -0.0164,35.7739 c -0.009,19.6757 -0.0595,36.7866 -0.1122,38.0241 -0.0712,1.6724 -0.032,2.2332 0.15278,2.1843 0.13687,-0.036 0.94383,-0.5555 1.79373,-1.154 z m 35.52853,-35.2148 V 90.5994 l -1.0609,-0.3504 -1.06096,-0.3504 v 36.4884 c 0,34.6091 0.0191,36.4924 0.37103,36.5655 0.20415,0.042 0.682,0.086 1.06088,0.097 l 0.68995,0.02 z m -3.23552,-0.6589 0.0536,-36.6406 -0.58419,-0.1769 c -0.32092,-0.097 -0.84693,-0.2188 -1.16792,-0.2701 l -0.58431,-0.093 0.0535,36.8188 0.0536,36.8188 0.53077,0.1208 c 0.29152,0.067 0.76927,0.1078 1.06104,0.092 l 0.53024,-0.029 z m -3.34276,-0.4532 V 88.7124 l -0.90186,-0.1834 c -0.49575,-0.1009 -1.02142,-0.2154 -1.16755,-0.2543 -0.21206,-0.057 -0.2547,7.381 -0.21184,37.0665 l 0.0535,37.1373 0.74267,0.1043 c 0.4081,0.057 0.90977,0.1143 1.11389,0.1265 0.35245,0.021 0.37114,-1.8441 0.37114,-36.9873 z m -15.30325,36.1064 c 0.17511,-0.1681 0.22416,-10.1286 0.18474,-37.6484 l -0.0534,-37.4199 -1.21991,-0.051 -1.22008,-0.051 v 36.976 36.9759 l 0.89278,0.723 c 0.98381,0.7967 1.06921,0.8265 1.41587,0.4946 z m 33.12623,-31.628 c -0.002,-30.946 -0.006,-31.304 -0.42271,-31.8043 -0.42169,-0.5057 -0.42186,-0.4924 -0.42326,31.6036 -0.002,32.0989 -0.002,32.1094 0.42326,31.8043 0.42122,-0.3032 0.42411,-0.5187 0.42271,-31.6036 z m -21.43001,-5.4888 V 88.0407 l -0.79578,-0.1756 c -0.43789,-0.097 -1.01058,-0.176 -1.27323,-0.1765 h -0.47775 v 35.9448 35.9449 l 1.22019,0.9 c 0.67148,0.495 1.24421,0.9011 1.27344,0.9025 0.0292,0 0.0531,-16.4993 0.0531,-36.6683 z m -7.4271,-1.7724 V 87.0589 l -0.98447,-0.1072 c -0.54117,-0.059 -1.11453,-0.1073 -1.27291,-0.1073 -0.2425,0 -0.28863,5.8894 -0.28863,36.8641 v 36.8641 l 1.27312,-0.8766 1.27289,-0.8766 z m -13.35233,35.8036 1.25711,-0.9531 v -35.557 -35.5569 h -1.04348 c -0.57393,0 -1.19449,0.046 -1.37895,0.1023 -0.305,0.093 -0.33608,3.4666 -0.33608,36.5102 0,20.0242 0.0549,36.4077 0.122,36.4077 0.0671,0 0.68759,-0.4289 1.3794,-0.9532 z m 5.28887,-35.6412 V 86.6758 h -1.27293 -1.27314 v 35.5691 35.5691 l 1.20943,0.8567 c 0.66503,0.4712 1.23798,0.8567 1.27282,0.8567 0.0351,0 0.0638,-16.3916 0.0638,-36.4258 z m 11.671,-0.1687 c 0,-33.775 -0.0189,-35.5827 -0.37154,-35.5844 -0.20423,0 -0.72909,-0.049 -1.16717,-0.1064 l -0.79558,-0.1045 v 35.3576 c 0,34.3776 0.0108,35.353 0.39354,35.1903 0.31397,-0.1336 0.51425,-0.067 0.99457,0.3314 0.33042,0.2743 0.67872,0.4986 0.77375,0.4986 0.095,0 0.17243,-16.0121 0.17243,-35.5826 z m -315.95812,15.9363 v -7.3357 h -3.92551 -3.92555 v 7.2514 7.2514 h -0.53083 -0.53017 v -7.2551 -7.2552 l -3.97866,0.046 -3.97863,0.046 -0.0425,7.2936 -0.0425,7.2936 h 8.4769 8.47743 z m 8.91234,0 v -7.3357 h -3.92579 -3.92548 v 7.3357 7.3358 h 3.92548 3.92579 z m 8.48748,0 v -7.3396 l -3.76649,0.046 -3.76613,0.046 -0.0553,7.2936 -0.0554,7.2936 h 3.82153 3.82181 z m 17.61235,0 v -7.3357 h -3.92551 -3.92555 v 7.2514 7.2514 h -0.53085 -0.5302 v -7.2514 -7.2514 h -3.71368 -3.71335 v 7.3357 7.3358 h 8.16975 8.16939 z m 8.91228,0 v -7.3357 h -3.92573 -3.9255 v 7.3357 7.3358 h 3.9255 3.92573 z m 8.91221,0 v -7.3395 l -3.97868,0.046 -3.97863,0.046 -0.0553,7.2936 -0.0554,7.2936 h 4.03399 4.03402 z m 90.20257,-2.8594 c 1.94188,-1.0064 1.93793,-3.3991 -0.007,-4.4319 -1.02138,-0.5424 -1.64239,-0.631 -2.75894,-0.3939 -1.60544,0.3411 -2.5586,1.2882 -2.5586,2.5425 0,2.3074 2.8883,3.5459 5.32483,2.2833 z m -134.38705,-9.321 -0.0585,-2.656 -4.08478,-0.046 -4.08465,-0.046 v 2.7018 2.7019 h 4.14309 4.14335 z m 8.9121,0 -0.0584,-2.656 -3.97866,-0.046 -3.97863,-0.046 v 2.702 2.7019 h 4.03712 4.03709 z m 8.74761,-0.042 v -2.6982 h -3.92551 -3.9257 v 2.6982 2.6982 h 3.9257 3.92551 z m 8.48814,0 v -2.6982 h -3.71337 -3.71371 v 2.6982 2.6982 h 3.71371 3.71337 z m -26.10013,-6.1553 v -2.6139 h -4.13795 -4.13769 v 2.6139 2.6139 h 4.13769 4.13795 z m 8.69992,0 v -2.6139 h -3.9257 -3.92557 v 2.6139 2.6139 h 3.92557 3.9257 z m 8.91207,0 v -2.6139 h -3.92551 -3.9257 v 2.6139 2.6139 h 3.9257 3.92551 z m 8.48814,0 v -2.6139 h -3.71337 -3.71371 v 2.6139 2.6139 h 3.71371 3.71337 z M 225.19781,69.3334 c 0,-0.4508 -0.0612,-1.175 -0.13622,-1.6092 l -0.13644,-0.7896 -1.40238,0.049 -1.40175,0.049 -0.0611,1.56 -0.0611,1.5598 h 1.59923 1.5998 z m 3.71307,-0.7824 v -1.5178 l -1.35781,-0.051 c -0.74665,-0.028 -1.42642,0.01 -1.51105,0.084 -0.0847,0.074 -0.1061,0.8025 -0.0476,1.618 l 0.10634,1.4828 1.40473,-0.049 1.40539,-0.049 z m 3.88695,0.042 -0.0675,-1.56 -1.43206,-0.05 -1.4326,-0.05 v 1.6098 1.6097 h 1.50017 1.49939 z m 3.8159,0.2986 c 0.10293,-1.8945 0.0642,-1.9429 -1.55297,-1.9429 h -1.37542 v 1.6098 1.6098 l 1.4326,-0.05 1.43184,-0.05 z m 3.81707,-0.2958 -0.061,-1.557 -1.43262,-0.055 -1.43252,-0.055 v 1.6122 1.6122 h 1.49364 1.4933 z m 666.33642,117.9965 v -2.4503 l 2.70555,0.047 2.70569,0.047 0.0589,2.4031 0.0589,2.4031 h -2.76464 -2.76433 z m 6.57838,0.01 v -2.4453 h 2.53519 2.53574 l 0.0636,2.4455 0.0639,2.4455 h -2.5992 -2.59922 v -2.4452 z m 6.32339,0 0.0639,-2.4456 h 2.53579 2.53514 v 2.4453 2.4452 h -2.59913 -2.59958 l 0.0639,-2.4455 z m 6.19586,0 v -2.4453 h 2.86448 2.86477 v -0.4216 -0.4216 h -2.86477 -2.86448 v -2.1079 -2.108 h 2.59945 c 2.74593,0 3.21859,-0.096 3.09493,-0.6078 -0.0696,-0.2884 -0.3304,-0.3213 -2.88553,-0.3641 l -2.80885,-0.047 v -2.1031 -2.1031 h 2.97069 2.9707 l 0.009,2.2345 c 0.005,1.2289 0.0287,4.6438 0.0531,7.5886 l 0.0444,5.3542 -3.02382,1e-4 h -3.0238 v -2.4452 z m -19.09763,-5.3683 c 0,-1.144 0.0395,-2.1115 0.0877,-2.1502 0.0483,-0.039 1.28981,-0.047 2.75854,-0.018 l 2.67103,0.052 v 2.0984 2.0983 h -2.75881 -2.75849 z m 6.57838,-0.028 v -2.108 h 2.54612 2.54635 v 2.108 2.1079 h -2.54635 -2.54612 z m 6.36506,-0.042 v -2.1501 l 2.54707,0.052 2.54648,0.052 v 2.0981 2.098 h -2.54608 -2.54666 v -2.1501 z m -10.34369,-3.0407 -2.59975,-0.047 v -2.1028 -2.1028 h 2.75849 2.75881 v 2.098 c 0,1.1539 -0.0716,2.1215 -0.159,2.1502 -0.0876,0.029 -1.32924,0.031 -2.75855,0 z m 12.41306,0 -2.06897,-0.048 v -2.1018 -2.1019 h 2.54667 2.54607 v 2.0883 c 0,2.44 0.27873,2.2407 -3.02377,2.1637 z M 913.3456,175.98 v -2.1079 h 2.54612 2.54635 v 2.1079 2.108 h -2.54635 -2.54612 z m -25.03243,-7.673 -0.0183,-4.7218 h 8.59954 8.5996 v 4.7218 4.7219 h -8.58145 -8.58136 l -0.0181,-4.7219 z m 18.45405,2.5245 v -2.1973 l 2.70555,0.047 2.70569,0.047 0.0594,2.1501 0.0594,2.1502 h -2.76517 -2.76484 z m 6.57838,0.01 v -2.1923 h 2.54612 2.54635 v 2.1923 2.1923 h -2.54635 -2.54612 z m 6.36546,0 v -2.1923 h 2.54667 2.54607 v 2.1923 2.1923 h -2.54607 -2.54667 z m 6.15379,0 v -2.1923 h 2.86448 2.86477 v -0.4216 -0.4216 h -2.86477 -2.86448 v -2.108 -2.1079 h 2.75847 2.75889 v -0.4216 -0.4216 h -2.75889 -2.75847 v -2.1923 -2.1923 h 2.86448 2.86477 v -0.4216 -0.4216 h -2.86477 -2.86448 v -2.1923 -2.1923 h 2.86448 2.86477 v -0.4216 -0.4216 h -2.86477 -2.86448 v -2.1923 -2.1923 h 2.86448 2.86477 v -0.4216 -0.4216 h -2.86477 -2.86448 v -2.1079 c 0,-1.8916 0.0382,-2.1089 0.37149,-2.1173 0.20413,-0.01 1.49303,0 2.86477,0.01 l 2.49299,0.018 v -0.5233 -0.5233 l -2.49299,0.018 c -1.37174,0.01 -2.66064,0.014 -2.86477,0.01 -0.33337,-0.01 -0.37149,-0.2258 -0.37149,-2.1219 v -2.1126 l 2.97669,0.047 2.97669,0.047 0.0471,17.6648 0.0471,17.6648 h -3.02382 -3.0238 v -2.1923 z m -88.4341,-6.5983 0.0549,-8.6219 4.98668,-1.1653 c 2.74269,-0.6409 9.66571,-2.2581 15.38403,-3.5939 5.7186,-1.3357 14.14201,-3.306 18.71818,-4.3784 4.57673,-1.0723 8.41997,-1.9497 8.54123,-1.9497 0.15021,0 0.22007,4.4929 0.22007,14.1656 v 14.1655 H 861.35593 837.376 Z m 15.43906,5.0076 c 0,-1.7423 -0.0349,-1.7859 -1.37926,-1.7261 l -0.6366,0.028 -0.0608,1.6443 -0.0607,1.6442 h 1.06867 1.06872 z m 2.92529,-0.053 -0.0608,-1.6443 -1.11396,-0.051 -1.11415,-0.051 v 1.6952 1.6952 h 1.17483 1.17484 z m 2.91,-0.042 v -1.6021 h -1.06096 -1.06096 l -0.061,1.6533 -0.0606,1.6532 1.12172,-0.051 1.12182,-0.051 z m 3.0768,0 v -1.6856 l -1.167,0.021 -1.167,0.021 v 1.6642 1.6642 h 1.167 1.167 z m 2.92539,0.041 -0.0607,-1.6443 -1.00789,-0.051 -1.00792,-0.051 v 1.6957 1.6956 h 1.06859 1.06865 z m 3.22846,-0.051 v -1.6948 l -1.22034,0.051 -1.22,0.051 -0.0607,1.6443 -0.0605,1.6442 h 1.28052 1.28099 z m 2.97069,0.01 v -1.6863 h -0.83122 c -1.48132,0 -1.50305,0.026 -1.50305,1.7887 v 1.584 h 1.16702 1.16725 z m 3.0769,0 v -1.602 h -1.16725 -1.16708 l -0.0608,1.6528 -0.061,1.6528 1.22799,-0.051 1.22818,-0.051 z m 2.65226,0.01 v -1.6802 l -0.95494,0.015 -0.95488,0.015 v 1.665 1.665 h 0.95488 0.95494 v -1.6803 z m -23.81118,-4.4329 0.0608,-1.6442 h -1.06872 -1.06874 v 1.5739 c 0,0.8657 0.0683,1.6282 0.15162,1.6944 0.0834,0.066 0.53687,0.098 1.00794,0.07 l 0.85632,-0.05 z m 2.97068,0 0.0608,-1.6442 h -1.17484 -1.17483 v 1.6952 1.6952 l 1.11415,-0.051 1.11396,-0.051 z m 2.91,0.042 v -1.6021 l -1.11398,-0.051 -1.114,-0.051 v 1.5827 c 0,0.8706 0.0679,1.6369 0.15124,1.703 0.0831,0.066 0.58474,0.098 1.11393,0.07 l 0.96281,-0.05 z m 3.03141,-0.042 0.0608,-1.6442 h -1.17472 -1.17467 v 1.6952 1.6952 l 1.11389,-0.051 1.11407,-0.051 z m 2.97078,0 0.0607,-1.6442 h -1.06865 -1.06859 v 1.6956 1.6956 l 1.00792,-0.051 1.00789,-0.051 z m 3.22846,0.043 v -1.6863 h -1.2733 -1.27282 v 1.5739 c 0,0.8657 0.0634,1.6246 0.14101,1.6864 0.0779,0.062 0.65105,0.1124 1.27325,0.1124 h 1.13186 z m 2.97069,0 v -1.6863 h -1.16725 -1.16702 v 1.5739 c 0,0.8657 0.0637,1.6246 0.14141,1.6864 0.0778,0.062 0.6033,0.1124 1.16721,0.1124 h 1.02565 z m 3.0769,0 v -1.602 l -1.22035,-0.051 -1.22015,-0.051 v 1.5824 c 0,0.8703 0.068,1.6364 0.15102,1.7024 0.0831,0.066 0.63243,0.098 1.2203,0.07 l 1.06918,-0.05 z m 2.65226,0 v -1.6863 h -0.95494 -0.95488 v 1.6863 1.6864 h 0.95488 0.95494 z m 30.13162,0.9375 v -2.0981 l 2.55064,-0.052 c 1.40238,-0.029 2.64393,-0.027 2.75858,0 0.12109,0.033 0.20808,0.9317 0.20808,2.1501 v 2.0939 h -2.75881 -2.75849 v -2.098 z m 6.57838,-0.01 v -2.108 h 2.54612 2.54635 v 2.108 2.108 h -2.54635 -2.54612 z m 6.36546,0 v -2.108 h 2.54667 2.54607 v 2.108 2.108 h -2.54607 -2.54667 z m -12.35995,-3.0888 -0.58389,-0.053 v -2.0968 -2.0968 h 2.75849 2.75881 v 2.0972 2.0971 l -2.17483,0.053 c -1.19649,0.029 -2.43796,0.029 -2.75858,0 z m 12.94378,0.017 -0.58383,-0.07 v -2.0968 -2.0967 h 2.54667 2.54607 v 2.1922 2.1923 l -1.96275,-0.025 c -1.07963,-0.014 -2.22541,-0.057 -2.54616,-0.096 z m -31.98212,-5.2005 c 0.009,-2.8339 0.069,-5.2623 0.1335,-5.3964 0.0998,-0.207 1.39539,-0.2438 8.58298,-0.2438 h 8.46489 v 5.3964 5.3964 h -8.59871 -8.59865 l 0.016,-5.1526 z m 25.03283,3.0447 v -2.108 h 2.54612 2.54635 v 2.108 2.1079 h -2.54635 -2.54612 z m -6.57838,-5.1435 V 153.14 h 2.75849 2.75881 v 2.1923 2.1923 h -2.75881 -2.75849 z m 6.57838,0 V 153.14 h 2.54612 2.54635 v 2.1923 2.1923 h -2.54635 -2.54612 z m 6.36546,0 V 153.14 h 2.54667 2.54607 v 2.1923 2.1923 h -2.54607 -2.54667 z m -12.94384,-5.2328 v -2.1973 l 2.70555,0.047 2.70569,0.047 0.0594,2.1501 0.0594,2.1501 h -2.76517 -2.76484 z m 6.57838,0.01 v -2.1923 h 2.54612 2.54635 v 2.1923 2.1923 h -2.54635 -2.54612 z m 6.36546,0 v -2.1923 h 2.54667 2.54607 v 2.1923 2.1923 h -2.54607 -2.54667 z m -12.94384,-5.1435 c 0,-2.2117 -0.0274,-2.1501 0.95485,-2.1501 0.17522,0 1.27342,0.01 2.44066,0.021 l 2.12179,0.021 v 2.108 2.1079 h -2.75881 -2.75849 z m 6.57838,0 v -2.108 h 2.54612 2.54635 v 2.108 2.108 h -2.54635 -2.54612 z m 6.36546,0 v -2.108 h 2.54667 2.54607 v 2.108 2.108 h -2.54607 -2.54667 z m -12.57215,-3.0783 c -0.32958,-0.059 -0.37169,-0.3037 -0.37169,-2.1618 v -2.0956 h 2.75849 2.75881 v 2.1079 2.108 l -2.0689,0.013 c -1.13779,0.01 -2.21212,0.031 -2.38736,0.054 -0.17508,0.023 -0.48512,0.011 -0.68935,-0.025 z m 6.20669,-2.1495 v -2.1079 h 2.54612 2.54635 v 2.1079 2.108 h -2.54635 -2.54612 z m 6.36546,0 v -2.1079 h 2.54667 2.54607 v 2.1079 2.108 h -2.54607 -2.54667 z m -12.94384,-5.1485 v -2.1973 l 2.70555,0.047 2.70569,0.047 0.0594,2.1501 0.0594,2.1501 h -2.76517 -2.76484 z m 6.57838,0.01 v -2.1923 h 2.54612 2.54635 v 2.1923 2.1923 h -2.54635 -2.54612 z m 6.36546,0 v -2.1923 h 2.54667 2.54607 v 2.1923 2.1923 h -2.54607 -2.54667 z m 6.15379,0 v -2.1923 h 2.86448 2.86477 v -0.4216 -0.4216 h -2.86477 -2.86448 v -2.108 -2.1079 h 2.86448 2.86477 v -0.506 -0.5059 h -2.86477 -2.86448 v -2.1079 -2.108 h 2.75847 2.75889 v -0.4216 -0.4216 h -2.75889 -2.75847 v -2.1923 -2.1923 h 2.86448 2.86477 v -0.4216 -0.4216 h -2.86477 -2.86448 v -2.1923 -2.1923 h 2.86448 2.86477 v -0.4216 -0.4216 h -2.86477 -2.86448 v -2.1079 -2.108 h 2.86448 2.86477 v -0.4216 -0.4216 h -2.86477 -2.86448 v -2.1923 -2.1923 h 2.86448 2.86477 v -0.4216 -0.4216 h -2.86477 -2.86448 v -2.1923 -2.1923 h 2.86448 2.86477 V 95.7286 95.307 h -2.86477 -2.86448 v -2.3609 -2.3609 h 3.0238 3.02382 v 23.1034 23.1034 h -3.02382 -3.0238 z m -19.09802,-5.1856 v -2.1502 l 2.75886,0.052 2.75919,0.052 v 2.0986 2.0986 h -2.75881 -2.75849 v -2.1501 z m 6.57877,0.042 v -2.1079 h 2.54612 2.54635 v 2.1079 2.108 h -2.54635 -2.54612 z m 6.36546,0 v -2.1079 h 2.54667 2.54607 v 2.1079 2.108 h -2.54607 -2.54667 z m -12.94423,-5.1856 v -2.1501 h 2.7585 2.7588 v 2.0986 2.0986 l -2.75919,0.052 -2.75885,0.052 v -2.1501 z m 6.57877,-0.042 v -2.1079 h 2.54612 2.54635 v 2.1079 2.108 h -2.54635 -2.54612 z m 6.36546,0 v -2.1079 h 2.54667 2.54607 v 2.1079 2.108 h -2.54607 -2.54667 z m -12.94384,-5.1384 v -2.1973 h 2.76484 2.76517 l -0.0594,2.1501 -0.0594,2.1502 -2.70569,0.047 -2.70555,0.047 z m 6.57838,0 v -2.1923 h 2.54612 2.54635 v 2.1923 2.1922 h -2.54635 -2.54612 z m 6.36546,0 v -2.1923 h 2.54667 2.54607 v 2.1923 2.1922 h -2.54607 -2.54667 z m -12.94384,-5.2329 v -2.1973 l 2.70555,0.047 2.70569,0.047 0.0594,2.1501 0.0594,2.1502 h -2.76517 -2.76484 z m 6.57838,0.01 v -2.1923 h 2.54612 2.54635 v 2.1923 2.1923 h -2.54635 -2.54612 z m 6.36546,0 v -2.1923 h 2.54667 2.54607 v 2.1923 2.1923 h -2.54607 -2.54667 z m -534.94312,-2.9207 c -1.55805,-0.29 -2.31524,-0.6299 -3.26685,-1.4666 -0.99085,-0.8716 -1.49496,-1.7943 -1.95646,-3.5788 -0.305,-1.1811 -0.37396,-2.8126 -0.45347,-10.7106 l -0.0939,-9.3172 h 2.99151 2.99153 l 0.002,8.727 c 0,5.2562 0.0851,8.9667 0.21212,9.3298 0.42698,1.2227 2.0183,1.7603 3.27378,1.1064 1.03853,-0.5409 1.07489,-0.8903 1.07489,-10.3518 v -8.8112 h 2.97067 l 2.97097,-2e-4 -0.12264,9.8233 c -0.10632,8.4912 -0.17167,9.9699 -0.48338,10.9048 -0.72333,2.1729 -2.15064,3.6007 -4.14023,4.1429 -1.34248,0.3659 -4.51331,0.4734 -5.96974,0.2025 z m 521.99928,-2.2228 v -2.108 h 2.75849 2.75881 v 2.108 2.108 h -2.75881 -2.75849 z m 6.57838,0 v -2.108 h 2.54612 2.54635 v 2.108 2.108 h -2.54635 -2.54612 z m 6.36546,0 v -2.108 h 2.54667 2.54607 v 2.108 2.108 h -2.54607 -2.54667 z m -12.94384,-5.1384 v -2.1973 h 2.76484 2.76517 l -0.0594,2.1502 -0.0594,2.1501 -2.70569,0.047 -2.70555,0.047 z m 6.57838,-0.01 v -2.1923 h 2.54612 2.54635 v 2.1923 2.1923 h -2.54635 -2.54612 z m 6.36546,0 v -2.1923 h 2.54667 2.54607 v 2.1923 2.1923 h -2.54607 -2.54667 z m -12.94384,-5.2277 v -2.1923 h 2.75849 2.75881 v 2.1923 2.1923 h -2.75881 -2.75849 z m 6.57838,0 v -2.1923 h 2.54612 2.54635 v 2.1923 2.1923 h -2.54635 -2.54612 z m 6.36546,0 v -2.1923 h 2.54667 2.54607 v 2.1923 2.1923 h -2.54607 -2.54667 z m -12.94384,-5.3965 v -2.3609 h 2.75849 2.75881 v 2.3609 2.361 h -2.75881 -2.75849 z m 6.57838,0 v -2.3609 h 2.54612 2.54635 v 2.3609 2.361 h -2.54635 -2.54612 z m 6.36546,0 v -2.3609 h 2.54667 2.54607 v 2.3609 2.361 h -2.54607 -2.54667 z"
     style="stroke-width:0.18916692" />
</svg>
