<?xml version="1.0" encoding="UTF-8" standalone="no"?>
<svg
   version="1.1"
   viewBox="0 0 382.48279 132.64652">
  <g
     transform="translate(-63.798289,-38.201713)"
     id="layer3">
    <path
       id="path5226"
       d="m 290.65959,186.51639 c -12.82102,-1.66359 -24.10399,-8.62771 -30.92685,-19.08881 -4.32774,-6.63549 -6.51169,-14.09429 -6.51169,-22.23935 0,-19.75454 14.15304,-36.4081 34.46515,-40.5543 3.92364,-0.80091 12.19047,-0.86716 15.93797,-0.12773 11.73295,2.31505 21.12656,8.21094 27.68304,17.37523 3.3891,4.73713 6.24099,11.71243 6.97502,17.05995 0.0999,0.7276 0.23363,1.62057 0.29721,1.98437 0.0636,0.3638 0.12179,2.32834 0.1293,4.36563 0.0408,11.07121 -4.02915,20.81048 -12.05772,28.85335 -6.66795,6.67984 -14.45175,10.6153 -24.01618,12.14249 -2.37479,0.37919 -9.73373,0.52002 -11.97525,0.22917 z m -181.88571,-2.04821 c -0.17273,-0.20813 -0.27661,-0.83321 -0.23084,-1.38906 0.0955,-1.15979 0.33438,-1.3167 4.31655,-2.83536 1.30969,-0.49947 3.21469,-1.22625 4.23334,-1.61507 6.26901,-2.39292 22.69512,-8.98962 25.66458,-10.30685 0.43656,-0.19366 2.40109,-1.02617 4.36562,-1.85004 1.96454,-0.82386 3.92907,-1.65914 4.36563,-1.85618 0.43656,-0.19703 2.87734,-1.27121 5.42396,-2.38705 5.31627,-2.32942 5.41242,-2.37252 8.59896,-3.85484 3.60558,-1.67724 6.21961,-2.88396 7.54062,-3.48095 1.656,-0.74839 16.2433,-8.04322 17.85938,-8.93114 0.7276,-0.39977 2.69213,-1.47817 4.36562,-2.39646 1.67349,-0.91829 3.3999,-1.87283 3.83646,-2.1212 0.43656,-0.24837 1.97556,-1.12465 3.42003,-1.94729 6.1259,-3.48879 15.55932,-9.7255 20.22946,-13.37428 9.16858,-7.16339 15.04783,-13.68479 17.73327,-19.6701 0.7715,-1.71953 1.61203,-4.9138 1.61203,-6.12619 v -0.675369 h -15.74271 -15.74271 l -0.0156,0.793749 c -0.008,0.43656 -0.0156,1.50813 -0.0156,2.38125 0,0.87313 0.007,1.70656 0.0156,1.85208 0.0101,0.17063 3.05785,0.26459 8.58213,0.26459 9.3708,0 9.17239,-0.0336 9.21769,1.55999 0.0479,1.68334 0.32546,1.64137 -10.30735,1.55816 l -9.6408,-0.0754 -0.50554,-0.62463 c -0.44143,-0.54537 -0.50557,-1.07408 -0.50557,-4.16718 l 5e-5,-3.542569 h -1.53458 c -1.74255,0 -2.16958,-0.28643 -2.16958,-1.45521 0,-1.1676 0.42696,-1.45521 2.16032,-1.45521 h 1.52532 l 0.0754,-2.70617 c 0.0753,-2.70306 0.0763,-2.70647 0.82103,-2.96782 0.56091,-0.19685 0.92138,-0.16266 1.45521,0.138 0.68196,0.3841 0.71032,0.48922 0.72887,2.70047 0.0106,1.26545 0.0809,2.36248 0.15632,2.43785 0.21449,0.21451 31.47493,0.18316 31.47493,0.18316 0,0 0.12099,-1.33879 -0.67849,-1.66592 -1.6161,-4.94102 -5.87023,-9.53137 -12.74212,-13.74923 -6.50812,-3.99459 -15.90604,-7.9349 -26.5643,-11.13777 -5.25995,-1.58063 -15.11163,-4.10153 -21.16667,-5.41621 -8.20917,-1.7824 -21.87805,-4.28794 -30.03021,-5.50461 -1.60073,-0.2389 -3.98198,-0.600681 -5.29166,-0.803961 -1.30969,-0.203276 -3.0361,-0.443026 -3.83646,-0.532778 -2.59968,-0.291523 -6.27791,-0.912781 -6.9763,-1.178306 -0.869,-0.330396 -1.20175,-1.473713 -0.60312,-2.072344 0.29842,-0.298423 0.92513,-0.430392 2.08482,-0.439018 2.2927,-0.01704 15.91406,0.413512 16.07742,0.508194 0.073,0.04233 2.33546,0.157379 5.02759,0.255656 2.69214,0.09828 5.07339,0.2222 5.29167,0.275381 0.21828,0.05318 1.76609,0.167259 3.43958,0.253508 3.05922,0.157668 5.80287,0.361399 7.27605,0.540282 0.43656,0.05301 1.98437,0.172722 3.43958,0.266025 1.45521,0.09331 3.59833,0.278625 4.7625,0.411819 1.16417,0.133196 2.9501,0.314655 3.96875,0.403243 2.12299,0.184629 14.83992,1.789229 18.78542,2.370309 3.50178,0.51573 11.07649,1.88261 13.89062,2.5066 7.26093,1.61001 9.02004,2.03834 13.09687,3.18894 10.0143,2.82633 18.84696,6.51998 24.43991,10.22033 8.92067,5.90197 13.31682,12.50681 13.35127,20.05917 0.018,3.91463 -0.84627,7.584489 -2.50912,10.933719 -3.8678,7.79031 -9.45735,14.03509 -16.73135,20.02253 -0.70715,0.58208 -1.53895,1.28345 -1.84843,1.5586 -3.12346,2.77699 -12.56874,9.28612 -19.58065,13.49382 -6.9923,4.19594 -10.05208,5.86412 -18.156,9.89854 -5.84435,2.90953 -8.72847,4.28569 -12.17083,5.80734 -0.80037,0.3538 -2.11005,0.94207 -2.91042,1.30729 -0.80036,0.36522 -2.88396,1.25662 -4.63021,1.9809 -1.74625,0.72428 -3.54473,1.48354 -3.99661,1.68725 -0.45188,0.2037 -2.81472,1.14893 -5.25076,2.10049 -12.54956,4.90212 -28.98876,10.38201 -40.62659,13.54259 -0.80036,0.21737 -2.05052,0.56258 -2.77812,0.76714 -0.7276,0.20456 -3.94229,1.02901 -7.14375,1.83211 -3.20146,0.8031 -6.25628,1.57936 -6.7885,1.72501 -0.53221,0.14566 -2.02049,0.49062 -3.30729,0.76658 -1.28679,0.27595 -4.04043,0.86979 -6.11919,1.31964 -4.19946,0.90878 -5.39834,0.99865 -5.8624,0.4395 z m 149.99987,-84.40142 3.83294,-1.937479 -4.03137,-2.01905 -4.03135,-2.01904 v 1.19228 1.19228 h -6.38085 l -6.02174,0.0501 c 0,0 -0.0384,1.587 -0.0365,2.1327 l 0.004,0.99219 h 6.21771 6.21771 v 1.190629 c 0,0.65484 0.009,1.24761 0.009,1.24761 0.10914,-0.008 2.11225,-0.95661 4.22034,-2.02223 z m -131.56051,14.11488 c -0.42493,-0.2475 -0.46302,-0.93246 -0.46302,-8.32633 0,-7.703869 0.0232,-8.079809 0.52917,-8.585809 0.51189,-0.51189 0.88194,-0.52917 11.33607,-0.52917 10.13354,0 10.8342,0.0301 11.24479,0.48386 0.63675,0.7036 0.65596,9.579019 0.0221,10.212869 -0.22867,0.22868 -0.52633,0.43066 -0.66146,0.44885 -0.13512,0.0182 -0.36474,0.0628 -0.51026,0.0992 -0.14553,0.0364 -4.49131,0.081 -9.6573,0.0992 l -9.39271,0.0331 v 2.86794 c 0,2.81652 -0.0121,2.87346 -0.67391,3.175 -0.81419,0.37097 -1.16586,0.37519 -1.77349,0.0213 z m 20.17448,-11.89571 v -2.642309 l -8.7974,0.0697 -8.79739,0.0697 -0.0767,2.491429 c -0.0422,1.37029 0.0356,2.56092 0.1727,2.64584 0.13715,0.0849 4.13047,0.12145 8.87405,0.0812 l 8.6247,-0.0732 z M 23.82509,113.53871 c -0.44696,-0.53857 -0.45215,-1.83111 -0.009,-2.36449 0.29724,-0.35816 1.6119,-0.41097 10.23054,-0.41097 h 9.88948 v -1.3136 -1.31361 l -9.7804,-0.0755 c -8.97394,-0.0692 -9.81935,-0.11438 -10.25261,-0.54755 -0.41102,-0.41094 -0.47993,-1.05607 -0.53193,-4.97938 -0.0591,-4.457469 -0.0526,-4.514389 0.58329,-5.150299 l 0.64302,-0.64302 h 10.67708 c 8.7988,0 10.76743,0.066 11.19067,0.37521 0.48212,0.35221 0.51856,0.8021 0.59467,7.342179 0.0446,3.83185 0.008,7.36264 -0.0818,7.84622 -0.28482,1.53785 -0.60013,1.57932 -12.32009,1.62041 -9.30495,0.0326 -10.52128,-0.0107 -10.83248,-0.38564 z m 20.15913,-11.2427 0.0837,-2.646409 -8.7974,5.3e-4 -8.7974,6.2e-4 v 2.645829 2.64584 h 8.71368 8.71368 z m 31.76757,6.07775 c -0.58937,-0.2369 -0.59532,-0.29179 -0.59532,-5.49848 0,-4.758989 0.046,-5.300829 0.48386,-5.697059 0.43353,-0.39235 1.60292,-0.43789 11.24479,-0.43789 10.40816,0 10.77829,0.0174 11.2901,0.52917 0.49303,0.49303 0.52917,0.88194 0.52917,5.694219 v 5.16504 l -0.67212,0.30624 c -0.45605,0.20779 -0.90259,0.22527 -1.38906,0.0544 l -0.71694,-0.25185 -0.0727,-4.29339 -0.0727,-4.293389 h -8.85699 -8.85699 v 4.239879 4.23988 l -0.67868,0.25804 c -0.79218,0.30119 -0.85165,0.30065 -1.63642,-0.0148 z M 178.932,108.23471 c -0.57041,-0.39954 -0.58803,-0.5538 -0.58803,-5.14693 0,-4.994989 0.17388,-5.925359 1.15673,-6.189119 0.30969,-0.0831 5.53646,-0.15273 11.61508,-0.15471 l 11.05204,-0.004 0.28958,0.63557 c 0.1931,0.42382 0.20593,0.88662 0.0385,1.38906 l -0.25109,0.75349 -10.28311,0.0693 c -7.42688,0.0501 -10.33557,0.15423 -10.47204,0.37506 -0.10393,0.168159 -0.20183,2.041969 -0.21755,4.164029 -0.0243,3.27449 -0.0955,3.90832 -0.47058,4.18901 -0.59008,0.44153 -1.15848,0.41686 -1.8695,-0.0812 z M -27.14405,107.8575 c -0.31253,-0.12769 -0.66972,-0.38934 -0.79375,-0.58144 -0.12403,-0.1921 -0.28505,-1.95661 -0.35781,-3.92114 l -0.13229,-3.571879 -7.672915,-0.13229 -7.672916,-0.13229 1.256771,-0.60193 c 0.691224,-0.33106 1.25677,-0.65619 1.25677,-0.72253 0,-0.0663 -0.565546,-0.415 -1.25677,-0.77482 l -1.256771,-0.65421 7.739062,-0.0123 7.739059,-0.0123 v -3.5839 c 0,-3.45235 0.0238,-3.60774 0.64944,-4.23333 l 0.64943,-0.64943 h 9.00786 c 8.6550804,0 9.0285804,0.0207 9.5370204,0.52916 0.47877,0.47877 0.52917,0.88195 0.52917,4.23334 v 3.70416 h 1.14962 c 1.94869,0 2.14129,0.42594 2.24976,4.975309 0.10227,4.28941 -0.16159,5.76062 -1.09909,6.12828 -0.76635,0.30054 -20.7883904,0.31317 -21.5216504,0.0136 z m 19.1552104,-2.90771 c 0.24205,-0.005 0.33073,-0.71686 0.33073,-2.65321 v -2.645829 h -8.7004004 -8.70041 l -0.1242,0.649709 c -0.0683,0.35733 -0.14773,1.53889 -0.1765,2.62568 -0.0497,1.8786 -0.0223,1.98022 0.55638,2.06227 0.44577,0.0632 13.60182,0.033 16.8144004,-0.0386 z M -10.89,94.028351 l -0.0754,-2.71197 h -7.14375 -7.14375 l -0.0418,2.71197 -0.0418,2.71198 h 7.26098 7.26097 z m 9.4496004,13.769329 c -0.29104,-0.16307 -0.61664,-0.42573 -0.72355,-0.58369 -0.10692,-0.15796 -0.19621,-2.3821 -0.19844,-4.94254 -0.004,-4.177089 0.0457,-4.700339 0.4798,-5.093229 0.43354,-0.39235 1.60293001,-0.43789 11.24479,-0.43789 10.4081696,0 10.7782896,0.0174 11.2901096,0.52917 0.48868,0.48868 0.52917,0.88194 0.52917,5.140169 v 4.61101 l -0.68914,0.54207 c -0.66822,0.52562 -1.00338,0.54191 -11.0463496,0.53675 -7.14751,-0.004 -10.52121,-0.0972 -10.88639,-0.30182 z m 19.7114596,-5.508 V 99.650751 H 9.4075204 0.54398041 l -1.3e-4,2.711979 -1.2e-4,2.71198 8.86365999,-0.073 8.8636696,-0.073 z M 50.6187,107.931 c -1.23563,-0.23829 -1.39139,-0.90198 -1.39139,-5.92856 0,-4.207319 0.0505,-4.736719 0.50558,-5.298939 l 0.50558,-0.62462 10.398,-0.0752 c 7.38635,-0.0534 10.61061,0.0129 11.13205,0.22886 0.85475,0.35405 1.26834,1.51182 1.26834,3.55049 0,1.956839 -0.41302,3.170779 -1.20094,3.529779 -0.47045,0.21435 -3.53692,0.30668 -10.18564,0.30668 h -9.51256 v 0.66146 0.66146 h 9.90298 c 10.85591,0 10.73452,-0.0177 10.73452,1.56539 0,1.62312 0.0707,1.61324 -11.26562,1.57358 -5.66385,-0.0198 -10.56476,-0.0875 -10.8909,-0.15039 z m 11.62384,-7.4865 h 7.65741 l -0.0837,-0.673349 -0.0837,-0.67336 -8.73124,-0.005 -8.73125,-0.005 -0.0816,0.65633 c -0.0923,0.743049 0.40738,0.991069 1.63598,0.811959 0.41838,-0.061 4.20652,-0.11089 8.4181,-0.11089 z m 39.17938,7.35052 c -0.78926,-0.98561 -0.42054,-2.6838 0.5989,-2.75833 0.28602,-0.0209 4.83463,-0.0507 10.10805,-0.0661 l 9.58803,-0.0281 -0.063,-0.59532 -0.063,-0.59531 -9.84661,-0.13229 c -11.62909,-0.15624 -10.74122,0.11519 -10.88462,-3.3275 -0.10605,-2.545889 0.20189,-3.599759 1.1824,-4.046509 0.45258,-0.20621 3.93241,-0.29891 11.22081,-0.29891 h 10.56478 l 0.38361,0.59532 c 0.47259,0.73339 0.26847,1.97265 -0.38229,2.32093 -0.28577,0.15293 -4.3348,0.22886 -10.15416,0.19041 l -9.67886,-0.064 -2e-5,0.79375 -2e-5,0.793749 9.37843,-0.0651 c 5.34641,-0.0371 9.65783,0.0412 10.02833,0.18203 0.93286,0.35467 1.31979,1.77145 1.17358,4.29713 -0.0866,1.49529 -0.24996,2.22438 -0.57037,2.54495 -0.40543,0.40565 -1.51091,0.45652 -11.38073,0.52376 -8.64208,0.0589 -10.98854,0.003 -11.20318,-0.26458 z m 52.47064,0.0508 c -0.42416,-0.12932 -0.86882,-0.38901 -0.98813,-0.57708 -0.11932,-0.18808 -0.21877,-2.43686 -0.22099,-4.9973 -0.004,-4.177089 0.0456,-4.700339 0.4798,-5.093229 0.43353,-0.39235 1.60292,-0.43789 11.24478,-0.43789 10.40818,0 10.7783,0.0174 11.29011,0.52917 0.48739,0.48739 0.52917,0.88194 0.52917,4.997769 0,4.00481 -0.0525,4.53344 -0.50559,5.09323 l -0.50557,0.62463 -10.2762,0.0479 c -5.6519,0.0263 -10.62322,-0.0579 -11.04738,-0.18721 z m 19.36776,-5.4831 -0.0757,-2.579689 -8.79739,-0.0697 -8.7974,-0.0697 v 2.649399 2.6494 h 8.87312 8.87312 z"
       style="fill:#000000;stroke-width:0.26458335"
       transform="translate(107.57202,-15.823509)" />
  </g>
  <g
     transform="translate(-63.798289,-38.201713)"
     id="layer2">
    <circle
       r="26.080357"
       cy="144.63779"
       cx="296.29556"
       id="path5302"
       style="opacity:1;fill:#ffffff;fill-opacity:1;fill-rule:nonzero;stroke:#fff500;stroke-width:0.052;stroke-miterlimit:4;stroke-dasharray:none;stroke-opacity:1"
       transform="translate(107.57202,-15.823509)" />
    <rect
       y="138.77916"
       x="289.96445"
       height="12.945683"
       width="13.040178"
       id="rect5336"
       style="opacity:1;fill:#000000;fill-opacity:1;fill-rule:nonzero;stroke:#fff500;stroke-width:0.052;stroke-miterlimit:4;stroke-dasharray:none;stroke-opacity:1"
       transform="translate(107.57202,-15.823509)" />
  </g>
  <g
     transform="translate(43.773731,-54.025222)"
     id="layer1">
    <g
       style="fill:none;fill-opacity:1"
       transform="matrix(0.06084538,0,0,0.06084538,281.40072,130.11146)"
       id="g8">
      <g
         style="fill:none;fill-opacity:1"
         id="g6">
        <path
           style="fill:none;fill-opacity:1"
           id="path2"
           d="m 418.5,418.5 c 95.6,-95.6 95.6,-251.2 0,-346.8 -95.6,-95.6 -251.2,-95.6 -346.8,0 -95.6,95.6 -95.6,251.2 0,346.8 95.6,95.6 251.2,95.6 346.8,0 z M 89,89 c 86.1,-86.1 226.1,-86.1 312.2,0 86.1,86.1 86.1,226.1 0,312.2 -86.1,86.1 -226.1,86.1 -312.2,0 C 2.9,315.1 3,175.1 89,89 Z" />
        <path
           style="fill:none;fill-opacity:1;stroke:#fff500;stroke-width:1.00821006;stroke-miterlimit:4;stroke-dasharray:none;stroke-opacity:1"
           id="path4"
           d="m 245.1,336.9 c 3.4,0 6.4,-1.4 8.7,-3.6 2.2,-2.2 3.6,-5.3 3.6,-8.7 v -67.3 h 67.3 c 3.4,0 6.4,-1.4 8.7,-3.6 2.2,-2.2 3.6,-5.3 3.6,-8.7 0,-6.8 -5.5,-12.3 -12.2,-12.2 h -67.3 v -67.3 c 0,-6.8 -5.5,-12.3 -12.2,-12.2 -6.8,0 -12.3,5.5 -12.2,12.2 v 67.3 h -67.3 c -6.8,0 -12.3,5.5 -12.2,12.2 0,6.8 5.5,12.3 12.2,12.2 h 67.3 v 67.3 c -0.3,6.9 5.2,12.4 12,12.4 z" />
      </g>
    </g>
    <path
       id="path5275"
       d="m 294.79466,158.35439 c -2.14887,-0.247 -4.38386,-1.08651 -6.12761,-2.30166 -1.90229,-1.32563 -3.36188,-3.02857 -4.37546,-5.10495 -0.66534,-1.36296 -1.02751,-2.52432 -1.26273,-4.04909 -0.13712,-0.88889 -0.13756,-2.84067 0,-3.73443 0.44513,-2.90956 1.64771,-5.38507 3.61636,-7.44431 1.65648,-1.73272 3.95339,-3.07802 6.27219,-3.67361 1.44498,-0.37115 3.28428,-0.51388 4.72814,-0.3669 2.5964,0.2643 5.12813,1.30424 7.13192,2.92949 0.66569,0.53993 1.74132,1.65301 2.23974,2.3177 1.78099,2.37508 2.69166,5.11737 2.69166,8.1053 0,1.54006 -0.1967,2.77824 -0.6707,4.22133 -1.46986,4.47528 -5.19893,7.83956 -9.83587,8.87373 -1.23551,0.27555 -3.13508,0.37357 -4.40683,0.2274 z m 1.87164,-7.82511 c 0.10681,-0.0571 0.24436,-0.1888 0.3057,-0.29263 0.10534,-0.17842 0.1124,-0.30568 0.12844,-2.32075 l 0.0169,-2.13197 h 2.08891 c 2.3122,0 2.37781,-0.009 2.58885,-0.34501 0.0906,-0.14429 0.11093,-0.25026 0.0934,-0.4863 -0.0194,-0.26229 -0.0489,-0.32615 -0.22524,-0.48771 l -0.20285,-0.1859 h -2.17459 -2.17459 v -2.04836 c -1.6e-4,-1.17715 -0.0237,-2.13269 -0.0554,-2.24662 -0.0303,-0.10903 -0.13213,-0.27207 -0.2263,-0.36229 -0.14967,-0.14339 -0.21234,-0.16405 -0.49751,-0.16405 -0.27061,0 -0.35205,0.0238 -0.47731,0.13935 -0.29761,0.27465 -0.30383,0.32755 -0.30383,2.59002 v 2.09195 h -2.17184 -2.17184 l -0.19565,0.1718 c -0.31622,0.27762 -0.36582,0.67737 -0.12644,1.01894 0.2134,0.30448 0.29284,0.31418 2.57381,0.31418 h 2.09196 l 10e-5,2.1041 c 1.2e-4,2.34664 0.003,2.3635 0.38439,2.61857 0.23001,0.15365 0.47216,0.16116 0.73117,0.0227 z"
       style="opacity:1;fill:#fff500;fill-opacity:1;fill-rule:nonzero;stroke:#fff500;stroke-width:0.05016401;stroke-miterlimit:4;stroke-dasharray:none;stroke-opacity:1" />
  </g>
</svg>
