<?xml version="1.0" encoding="UTF-8" standalone="no"?>
<svg
   version="1.1"
   viewBox="0 0 68.655503 65.088258"
   data-name="Layer 1"
   id="Layer_1">
  <path
     style="stroke-width:0.5584926"
     id="path4"
     d="M 9.8964864,25.372301 V 11.795349 h 9.3826966 v 2.971197 h -5.758057 v 2.334503 h 5.182797 v 2.965589 h -5.182797 v 5.305663 z M 9.3100837,0 H 46.449838 a 9.3268259,9.3268259 0 0 1 9.310086,9.3100837 V 28.684167 A 9.3268259,9.3268259 0 0 1 46.449838,37.9775 H 25.389088 L 11.259235,50.141448 A 1.5693642,1.5693642 0 0 1 8.6789984,48.85135 L 9.432951,37.9775 H 9.3100878 A 9.3268259,9.3268259 0 0 1 0,28.684167 V 9.3100837 A 9.3268259,9.3268259 0 0 1 9.3100837,0 Z M 61.249881,13.766861 a 9.170448,9.170448 0 0 1 7.405618,8.935875 V 43.47864 a 9.1425234,9.1425234 0 0 1 -9.120181,9.114604 h -0.33502 l 0.748373,11.074906 v 0 a 1.3738917,1.3738917 0 0 1 -2.233952,1.116977 L 43.501067,52.235821 H 21.367988 l 9.203968,-9.36033 h 22.942903 a 7.7630467,7.7630467 0 0 0 7.735104,-7.740713 V 14.381194 c 0,-0.206802 0,-0.413282 0,-0.614333 z M 46.472158,3.1554866 H 9.3100837 A 6.1992676,6.1992676 0 0 0 3.1666754,9.3268354 V 28.684167 a 6.1992676,6.1992676 0 0 0 6.1713392,6.143443 h 1.9100414 a 1.5637792,1.5637792 0 0 1 1.452078,1.675453 l -0.636692,8.8298 11.655729,-10.052895 a 1.5581943,1.5581943 0 0 1 1.117016,-0.452358 h 21.608074 a 6.1992676,6.1992676 0 0 0 6.143418,-6.143443 V 9.3100837 A 6.1992676,6.1992676 0 0 0 46.444261,3.1666548 Z M 22.457002,25.389088 h -3.909448 l 4.350661,-13.593739 h 4.953815 l 4.400914,13.576952 h -3.909447 l -2.915334,-9.835052 h -0.106079 l -2.915334,9.835052 z m -0.731628,-5.355953 h 7.316249 v 2.758966 H 21.67512 v -2.775717 z m 16.391747,0.31824 h 2.792462 l 0.977369,1.284527 1.720167,1.982656 2.233952,2.792468 H 42.652083 L 41.06596,24.528878 39.993651,22.959506 38.066863,20.362518 Z m 7.768632,-1.748102 a 7.729537,7.729537 0 0 1 -0.871237,3.820084 5.7859828,5.7859828 0 0 1 -2.340086,2.351256 7.1375352,7.1375352 0 0 1 -6.57347,0 5.8362475,5.8362475 0 0 1 -2.334504,-2.3624 7.7239523,7.7239523 0 0 1 -0.860067,-3.803332 7.7574616,7.7574616 0 0 1 0.860067,-3.82012 5.8194927,5.8194927 0 0 1 2.334504,-2.356827 7.1598747,7.1598747 0 0 1 6.57347,0 5.8362475,5.8362475 0 0 1 2.340086,2.356827 7.6960276,7.6960276 0 0 1 0.871237,3.82012 z m -3.730713,0 a 5.7803982,5.7803982 0 0 0 -0.318236,-2.055231 2.6528397,2.6528397 0 0 0 -0.927112,-1.278957 2.8874065,2.8874065 0 0 0 -3.032597,0 2.6975192,2.6975192 0 0 0 -0.932713,1.278957 5.9144364,5.9144364 0 0 0 -0.312881,2.055231 5.9367761,5.9367761 0 0 0 0.26252,2.06084 2.6807643,2.6807643 0 0 0 0.932679,1.273384 2.8594819,2.8594819 0 0 0 3.032625,0 2.6360849,2.6360849 0 0 0 0.927112,-1.273384 5.797153,5.797153 0 0 0 0.318236,-2.055232 z" />
</svg>
