<?xml version="1.0" encoding="UTF-8" standalone="no"?>
<svg
   id="svg20"
   version="1.1"
   viewBox="0 0 655.83142 655.83142">
  <path
     style="fill:url(#0);stroke-width:0.19491525"
     id="path14"
     d="m 166.3017,653.5119 c -39.0025,-1.7737 -60.1898,-8.2644 -74.2822,-13.761 -18.6728,-7.2703 -31.9856,-15.9246 -46,-29.9195 C 32.0051,595.8365 23.3314,582.5238 16.1,563.8509 10.6034,549.7585 4.1128,528.5712 2.339,489.5687 0.3899,447.4085 0,434.7585 0,327.945 0,221.1314 0.4289,208.5009 2.3195,166.3017 4.0933,127.2992 10.6229,106.1509 16.0806,92.0195 23.3509,73.3467 32.0246,60.0339 46,46 59.995,32.0051 73.3077,23.3119 92,16.0806 106.0924,10.5839 127.2797,4.0933 166.2822,2.3195 208.4619,0.3899 221.1314,0 327.906,0 434.7195,0 447.35,0.4289 489.5492,2.3195 c 39.0025,1.7738 60.1508,8.3034 74.2822,13.7611 18.6729,7.2313 31.9856,15.9245 46,29.9194 14.0144,13.995 22.6492,27.3272 29.9195,46 5.4966,14.0924 11.9873,35.2797 13.761,74.2822 1.9297,42.1992 2.3195,54.8297 2.3195,161.6433 0,106.7745 -0.3898,119.444 -2.3195,161.6432 -1.7737,39.0025 -8.3034,60.1898 -13.761,74.2822 -7.2703,18.6729 -15.9246,31.9856 -29.9195,45.9805 -13.9949,13.9949 -27.3271,22.6492 -46,29.9195 -14.0924,5.4966 -35.2797,11.9873 -74.2822,13.761 -42.1602,1.9297 -54.8297,2.3195 -161.6432,2.3195 -106.7746,0 -119.4441,-0.3703 -161.6043,-2.3195" />
  <path
     style="fill:url(#1);stroke-width:0.19491525"
     id="path16"
     d="m 166.3017,653.5119 c -39.0025,-1.7737 -60.1898,-8.2644 -74.2822,-13.761 -18.6728,-7.2703 -31.9856,-15.9246 -46,-29.9195 C 32.0051,595.8365 23.3314,582.5238 16.1,563.8509 10.6034,549.7585 4.1128,528.5712 2.339,489.5687 0.3899,447.4085 0,434.7585 0,327.945 0,221.1314 0.4289,208.5009 2.3195,166.3017 4.0933,127.2992 10.6229,106.1509 16.0806,92.0195 23.3509,73.3467 32.0246,60.0339 46,46 59.995,32.0051 73.3077,23.3119 92,16.0806 106.0924,10.5839 127.2797,4.0933 166.2822,2.3195 208.4619,0.3899 221.1314,0 327.906,0 434.7195,0 447.35,0.4289 489.5492,2.3195 c 39.0025,1.7738 60.1508,8.3034 74.2822,13.7611 18.6729,7.2313 31.9856,15.9245 46,29.9194 14.0144,13.995 22.6492,27.3272 29.9195,46 5.4966,14.0924 11.9873,35.2797 13.761,74.2822 1.9297,42.1992 2.3195,54.8297 2.3195,161.6433 0,106.7745 -0.3898,119.444 -2.3195,161.6432 -1.7737,39.0025 -8.3034,60.1898 -13.761,74.2822 -7.2703,18.6729 -15.9246,31.9856 -29.9195,45.9805 -13.9949,13.9949 -27.3271,22.6492 -46,29.9195 -14.0924,5.4966 -35.2797,11.9873 -74.2822,13.761 -42.1602,1.9297 -54.8297,2.3195 -161.6432,2.3195 -106.7746,0 -119.4441,-0.3703 -161.6043,-2.3195" />
  <path
     style="fill:#ffffff;stroke-width:0.19491525"
     id="path18"
     d="m 247.3962,329.3133 c 0,-44.852 36.3498,-81.2212 81.2017,-81.2212 44.852,0 81.2212,36.3692 81.2212,81.2212 0,44.8519 -36.3692,81.2212 -81.2212,81.2212 -44.8519,0 -81.2017,-36.3693 -81.2017,-81.2212 m -43.9066,0 c 0,69.0974 56.0109,125.1083 125.1083,125.1083 69.0975,0 125.1083,-56.0109 125.1083,-125.1083 0,-69.0975 -56.0108,-125.1083 -125.1083,-125.1083 -69.0974,0 -125.1063,56.0069 -125.1063,125.1083 M 429.4237,199.2444 a 29.237288,29.237288 0 1 0 29.249,-29.2256 h -0.012 a 29.250932,29.250932 0 0 0 -29.2373,29.2256 m -199.258,328.3912 c -23.7543,-1.0817 -36.6655,-5.0385 -45.2457,-8.3813 -11.3752,-4.4285 -19.4915,-9.7029 -28.0249,-18.2246 -8.5334,-8.5217 -13.8156,-16.6302 -18.2245,-28.0054 -3.3448,-8.5763 -7.3016,-21.4914 -8.3814,-45.2457 -1.1812,-25.682 -1.417,-33.3968 -1.417,-98.4614 0,-65.0647 0.2553,-72.758 1.417,-98.4615 1.0818,-23.7543 5.0678,-36.644 8.3814,-45.2457 4.4284,-11.3752 9.7028,-19.4915 18.2245,-28.0249 8.5217,-8.5334 16.6302,-13.8156 28.0249,-18.2245 8.5763,-3.3448 21.4914,-7.3016 45.2457,-8.3814 25.6821,-1.1812 33.3968,-1.417 98.4322,-1.417 65.0354,0 72.758,0.2514 98.4615,1.4209 23.7543,1.0818 36.644,5.0678 45.2456,8.3814 11.3753,4.4089 19.4916,9.7028 28.025,18.2245 8.5333,8.5217 13.7961,16.6497 18.2245,28.0249 3.3448,8.5763 7.3016,21.4914 8.3814,45.2457 1.1812,25.7035 1.417,33.3968 1.417,98.4615 0,65.0646 -0.2358,72.7579 -1.417,98.4614 -1.0818,23.7543 -5.0581,36.6655 -8.3814,45.2457 -4.4284,11.3752 -9.7028,19.4915 -18.2245,28.0054 -8.5217,8.5139 -16.6497,13.7961 -28.025,18.2246 -8.5762,3.3447 -21.4913,7.3015 -45.2456,8.3813 -25.6821,1.1812 -33.3968,1.4171 -98.4615,1.4171 -65.0646,0 -72.7579,-0.2359 -98.4322,-1.4171 M 228.148,87.1447 c -25.9373,1.1812 -43.661,5.2939 -59.1392,11.3168 -16.0201,6.2197 -29.5998,14.5641 -43.1601,28.1029 -13.5602,13.5388 -21.8831,27.1205 -28.1029,43.1601 -6.0228,15.4879 -10.1355,33.2018 -11.3167,59.1392 -1.2007,25.9783 -1.4755,34.2836 -1.4755,100.4496 0,66.1659 0.2748,74.4712 1.4755,100.4495 1.1812,25.9394 5.2939,43.6513 11.3167,59.1393 6.2198,16.0201 14.5446,29.6271 28.1029,43.1601 13.5583,13.5329 27.1205,21.8656 43.1601,28.1028 15.5075,6.0229 33.2019,10.1356 59.1392,11.3168 25.992,1.1812 34.2837,1.4755 100.4496,1.4755 66.166,0 74.4713,-0.2748 100.4496,-1.4755 25.9393,-1.1812 43.6513,-5.2939 59.1392,-11.3168 16.0201,-6.2372 29.5999,-14.564 43.1601,-28.1028 13.5603,-13.5389 21.8656,-27.14 28.1029,-43.1601 6.0229,-15.488 10.1551,-33.2019 11.3168,-59.1393 1.1812,-25.9978 1.456,-34.2836 1.456,-100.4495 0,-66.166 -0.2748,-74.4713 -1.456,-100.4496 -1.1812,-25.9393 -5.2939,-43.661 -11.3168,-59.1392 -6.2373,-16.0201 -14.5641,-29.5999 -28.1029,-43.1601 -13.5388,-13.5603 -27.14,-21.8832 -43.1406,-28.1029 -15.5074,-6.0229 -33.2213,-10.1551 -59.1392,-11.3168 -25.9822,-1.187 -34.2837,-1.4755 -100.4398,-1.4755 -66.1562,0 -74.4772,0.2748 -100.4691,1.4755" />
</svg>
